<svg width="840" height="39" viewBox="0 0 840 39" fill="none" xmlns="http://www.w3.org/2000/svg">
<path d="M18.9678 5.32241C17.874 6.84304 16.4868 8.41703 14.8061 10.0444C13.1521 11.6717 11.3113 13.2323 9.28383 14.7263C7.28301 16.2203 5.18881 17.5541 3.00124 18.728C2.78781 18.3278 2.5077 17.8876 2.16089 17.4074C1.84076 16.9272 1.48061 16.4603 1.08044 16.0068C0.706954 15.5533 0.346805 15.1531 -4.81507e-06 14.8063C2.29428 13.7125 4.49519 12.3653 6.60272 10.7647C8.71026 9.13732 10.591 7.44329 12.2451 5.68256C13.9258 3.92183 15.2596 2.2278 16.2467 0.600461H21.2488C22.3426 2.12109 23.5431 3.57502 24.8503 4.96227C26.1575 6.3495 27.5581 7.63003 29.052 8.80385C30.546 9.97767 32.0799 11.0314 33.6539 11.9652C35.2279 12.8989 36.8152 13.6859 38.4159 14.3261C37.8023 14.9397 37.2287 15.6333 36.6952 16.407C36.1616 17.1806 35.6681 17.9276 35.2146 18.6479C33.6939 17.8476 32.1466 16.9272 30.5726 15.8868C29.0253 14.8463 27.5314 13.7392 26.0908 12.5654C24.6502 11.3649 23.3163 10.1511 22.0891 8.9239C20.862 7.69673 19.8215 6.49623 18.9678 5.32241ZM8.9637 12.7255H29.092V16.9272H8.9637V12.7255ZM4.16172 20.8888H33.814V25.0506H4.16172V20.8888ZM2.16089 33.0539H36.1749V37.1756H2.16089V33.0539ZM16.3668 14.4062H21.4489V35.1347H16.3668V14.4062ZM6.68276 26.5712L10.5243 24.9705C11.0312 25.6375 11.5248 26.3711 12.005 27.1714C12.5118 27.9718 12.9654 28.7588 13.3655 29.5324C13.7657 30.3061 14.0591 30.9997 14.2459 31.6133L10.1242 33.454C9.96411 32.8405 9.69734 32.1335 9.32385 31.3332C8.95036 30.5062 8.53686 29.6791 8.08334 28.8521C7.62982 28.0251 7.16296 27.2648 6.68276 26.5712ZM27.0112 25.0106L31.6131 26.6912C30.8127 27.9184 29.9857 29.1456 29.132 30.3728C28.2784 31.5733 27.4914 32.6004 26.7711 33.454L23.1696 31.9334C23.6231 31.2931 24.09 30.5862 24.5702 29.8125C25.0503 29.0122 25.5039 28.1985 25.9307 27.3715C26.3576 26.5178 26.7177 25.7308 27.0112 25.0106ZM66.8639 1.32076H71.0256V11.605H66.8639V1.32076ZM49.0965 28.7321H52.4979V37.2556H49.0965V28.7321ZM60.5413 33.334C62.4087 33.1206 64.6496 32.8138 67.264 32.4136C69.8785 32.0134 72.5196 31.5999 75.1873 31.1731L75.4674 35.2548C73.0664 35.735 70.6388 36.1885 68.1844 36.6153C65.7568 37.0689 63.5558 37.4824 61.5817 37.8559L60.5413 33.334ZM71.986 27.1314L75.5875 26.2911C76.0677 27.4649 76.5079 28.7188 76.908 30.0526C77.3082 31.3865 77.6417 32.6937 77.9084 33.9743C78.2019 35.2281 78.3886 36.3352 78.4687 37.2956L74.5871 38.296C74.5337 37.3623 74.387 36.2419 74.1469 34.9347C73.9068 33.6541 73.6 32.3336 73.2265 30.973C72.853 29.6125 72.4395 28.3319 71.986 27.1314ZM65.1032 12.4053V20.7688H73.0264V12.4053H65.1032ZM61.3416 8.32365H76.9881V24.8505H61.3416V8.32365ZM47.4158 10.8447V13.3257H54.3787V10.8447H47.4158ZM43.3342 7.68339H58.7405V16.407H43.3342V7.68339ZM41.4534 2.28116H60.5013V6.24279H41.4534V2.28116ZM46.3354 27.8117H55.3391V30.933H46.3354V27.8117ZM41.6935 17.9276H58.1003V21.329H45.335V38.216H41.6935V17.9276ZM56.4196 17.9276H60.1811V34.3344C60.1811 35.1614 60.0877 35.8284 59.901 36.3352C59.7143 36.8688 59.3541 37.2956 58.8206 37.6158C58.287 37.9092 57.6467 38.0826 56.8998 38.136C56.1795 38.216 55.3258 38.256 54.3387 38.256C54.312 37.7491 54.192 37.1622 53.9786 36.4953C53.7918 35.8284 53.5784 35.2414 53.3383 34.7346C53.8985 34.7612 54.4187 34.7746 54.8989 34.7746C55.4058 34.7746 55.7526 34.7746 55.9394 34.7746C56.2595 34.7746 56.4196 34.6012 56.4196 34.2544V17.9276ZM51.6176 19.7284H54.3387V23.3699C54.3387 23.69 54.3654 23.8901 54.4187 23.9701C54.4721 24.0235 54.6055 24.0502 54.8189 24.0502C54.8723 24.0502 54.9656 24.0502 55.099 24.0502C55.2324 24.0502 55.3658 24.0502 55.4992 24.0502C55.6592 24.0502 55.766 24.0502 55.8193 24.0502C56.0594 24.0502 56.2061 24.0368 56.2595 24.0101C56.3395 23.9568 56.4062 23.8501 56.4596 23.69C56.6997 23.9034 57.0598 24.1035 57.54 24.2903C58.0202 24.4503 58.4604 24.5704 58.8606 24.6504C58.7005 25.3707 58.4071 25.8776 57.9802 26.171C57.58 26.4645 57.0198 26.6112 56.2995 26.6112C56.1394 26.6112 55.9394 26.6112 55.6993 26.6112C55.4592 26.6112 55.2191 26.6112 54.979 26.6112C54.7389 26.6112 54.5521 26.6112 54.4187 26.6112C53.2716 26.6112 52.5113 26.3978 52.1378 25.9709C51.791 25.5174 51.6176 24.6637 51.6176 23.4099V19.7284ZM67.264 9.8843H70.7455V22.6896H71.0656V34.0143H66.9039V22.6896H67.264V9.8843ZM47.4158 19.4883H50.0569V21.1289C50.0569 21.9026 49.9902 22.7029 49.8569 23.5299C49.7235 24.3303 49.4433 25.1173 49.0165 25.8909C48.5897 26.6646 47.9094 27.3715 46.9757 28.0118C46.7356 27.6917 46.3754 27.3448 45.8952 26.9714C45.415 26.5979 45.0148 26.3044 44.6947 26.091C45.495 25.6375 46.082 25.1173 46.4554 24.5304C46.8556 23.9434 47.109 23.3432 47.2158 22.7296C47.3491 22.116 47.4158 21.5558 47.4158 21.0489V19.4883ZM99.2735 5.32241C98.4465 6.52291 97.4594 7.76342 96.3123 9.04395C95.1652 10.3245 93.8846 11.5917 92.4707 12.8455C91.0835 14.0994 89.6029 15.2999 88.0289 16.447C86.4816 17.5675 84.8676 18.5946 83.1869 19.5283C83.0001 19.1548 82.7334 18.728 82.3865 18.2478C82.0397 17.7676 81.6662 17.3007 81.2661 16.8472C80.8659 16.3937 80.4924 15.9935 80.1456 15.6467C82.4666 14.4462 84.6942 13.0056 86.8284 11.3249C88.9626 9.61752 90.8701 7.81678 92.5507 5.92266C94.2581 4.02855 95.6053 2.24114 96.5924 0.560445H101.554C102.648 2.13443 103.862 3.65506 105.196 5.12233C106.53 6.5896 107.944 7.95017 109.438 9.20402C110.932 10.4579 112.479 11.5917 114.08 12.6054C115.68 13.6192 117.294 14.4729 118.922 15.1665C118.308 15.7801 117.721 16.4737 117.161 17.2473C116.627 17.9943 116.134 18.7413 115.68 19.4883C114.106 18.6079 112.532 17.6208 110.958 16.527C109.411 15.4066 107.904 14.2194 106.436 12.9656C104.969 11.7117 103.622 10.4312 102.395 9.12398C101.168 7.81678 100.127 6.54959 99.2735 5.32241ZM99.5536 20.5687H112.959V24.8505H99.5536V20.5687ZM82.3865 32.8938H116.601V37.2556H82.3865V32.8938ZM97.1526 12.0052H102.235V35.2148H97.1526V12.0052ZM86.7483 18.928H91.4703V35.1347H86.7483V18.928ZM121.879 25.2106H157.574V29.1723H121.879V25.2106ZM121.999 7.28322H157.454V11.2048H121.999V7.28322ZM123.64 14.4462H155.893V18.2077H123.64V14.4462ZM125.601 19.9685H154.052V23.4499H125.601V19.9685ZM137.205 16.327H141.967V38.3361H137.205V16.327ZM133.724 0.680496H138.206V9.164H133.724V0.680496ZM141.167 0.680496H145.689V8.88389H141.167V0.680496ZM136.325 26.9714L140.127 28.6921C138.873 30.0793 137.352 31.3732 135.565 32.5737C133.804 33.7475 131.91 34.7746 129.882 35.655C127.855 36.562 125.814 37.2956 123.76 37.8559C123.546 37.4557 123.253 37.0022 122.88 36.4953C122.533 36.0151 122.159 35.5349 121.759 35.0547C121.386 34.5745 121.025 34.1743 120.679 33.8542C122.679 33.4274 124.667 32.8805 126.641 32.2135C128.642 31.5466 130.483 30.7596 132.163 29.8526C133.844 28.9455 135.231 27.9851 136.325 26.9714ZM142.928 26.8513C143.755 27.6516 144.742 28.412 145.889 29.1323C147.036 29.8259 148.29 30.4661 149.651 31.053C151.038 31.6133 152.492 32.1068 154.012 32.5337C155.56 32.9605 157.12 33.294 158.694 33.5341C158.321 33.9076 157.921 34.3344 157.494 34.8146C157.094 35.3215 156.707 35.8417 156.333 36.3752C155.987 36.9355 155.693 37.4424 155.453 37.8959C153.852 37.4957 152.278 36.9755 150.731 36.3352C149.21 35.7216 147.756 35.0147 146.369 34.2144C144.982 33.414 143.675 32.5203 142.448 31.5332C141.22 30.5462 140.14 29.4924 139.206 28.3719L142.928 26.8513ZM150.371 1.04064L155.373 2.24114C154.759 3.33493 154.132 4.40203 153.492 5.44246C152.852 6.45622 152.265 7.32324 151.731 8.04354L147.81 6.84304C148.13 6.30949 148.45 5.70924 148.77 5.0423C149.09 4.34868 149.384 3.65506 149.651 2.96144C149.944 2.24114 150.184 1.60087 150.371 1.04064ZM145.089 9.60418L150.171 10.8047C149.611 11.7384 149.077 12.6454 148.57 13.5258C148.063 14.3795 147.61 15.1131 147.21 15.7267L143.128 14.6063C143.475 13.8593 143.835 13.0323 144.208 12.1252C144.582 11.1915 144.875 10.3512 145.089 9.60418ZM124.84 2.32117L128.962 0.920594C129.549 1.7476 130.136 2.708 130.723 3.80178C131.31 4.86889 131.737 5.78927 132.003 6.56293L127.682 8.16359C127.468 7.36326 127.081 6.4162 126.521 5.32241C125.961 4.22863 125.401 3.22821 124.84 2.32117ZM129.922 11.2849L134.604 10.5246C134.951 11.0848 135.285 11.7251 135.605 12.4454C135.952 13.139 136.205 13.7526 136.365 14.2861L131.483 15.1265C131.35 14.6196 131.136 13.9927 130.843 13.2457C130.549 12.4987 130.243 11.8451 129.922 11.2849ZM177.738 6.76301C178.966 6.92307 180.34 7.04312 181.86 7.12316C183.407 7.17651 184.968 7.20319 186.542 7.20319C188.143 7.17651 189.677 7.12316 191.144 7.04312C192.611 6.93641 193.878 6.8297 194.946 6.72299V11.8851C193.718 11.9918 192.371 12.0852 190.904 12.1652C189.437 12.2186 187.929 12.2453 186.382 12.2453C184.835 12.2453 183.314 12.2186 181.82 12.1652C180.353 12.0852 178.992 11.9918 177.738 11.8851V6.76301ZM180.94 23.8501C180.78 24.517 180.66 25.1173 180.58 25.6508C180.5 26.1577 180.46 26.6779 180.46 27.2115C180.46 27.6383 180.566 28.0385 180.78 28.412C180.993 28.7588 181.313 29.0656 181.74 29.3323C182.194 29.5724 182.767 29.7592 183.461 29.8926C184.181 29.9993 185.048 30.0526 186.062 30.0526C187.849 30.0526 189.53 29.9726 191.104 29.8125C192.678 29.6258 194.345 29.359 196.106 29.0122L196.186 34.4144C194.906 34.6545 193.425 34.8413 191.744 34.9747C190.09 35.1081 188.129 35.1748 185.862 35.1748C182.42 35.1748 179.859 34.6012 178.179 33.454C176.498 32.2802 175.658 30.6662 175.658 28.612C175.658 27.8384 175.711 27.0381 175.818 26.211C175.951 25.3574 176.124 24.4236 176.338 23.4099L180.94 23.8501ZM171.576 4.0819C171.469 4.34868 171.349 4.72216 171.216 5.20236C171.082 5.68256 170.949 6.14942 170.816 6.60294C170.709 7.05646 170.629 7.40327 170.575 7.64337C170.495 8.2036 170.362 8.93724 170.175 9.84428C170.015 10.7246 169.842 11.7251 169.655 12.8455C169.495 13.9393 169.335 15.0598 169.175 16.2069C169.015 17.3541 168.881 18.4612 168.775 19.5283C168.695 20.5954 168.655 21.5291 168.655 22.3294C168.655 22.7029 168.655 23.1298 168.655 23.61C168.681 24.0902 168.735 24.5304 168.815 24.9305C169.002 24.477 169.202 24.0235 169.415 23.57C169.628 23.1164 169.842 22.6629 170.055 22.2094C170.269 21.7292 170.455 21.2757 170.616 20.8488L173.097 22.8096C172.723 23.9034 172.336 25.0772 171.936 26.3311C171.563 27.5849 171.216 28.7721 170.896 29.8926C170.602 30.9864 170.375 31.8934 170.215 32.6137C170.162 32.9071 170.109 33.2406 170.055 33.6141C170.029 33.9876 170.015 34.281 170.015 34.4945C170.015 34.7079 170.015 34.9613 170.015 35.2548C170.042 35.5749 170.069 35.8684 170.095 36.1351L165.453 36.4553C165.053 35.068 164.693 33.2273 164.373 30.933C164.053 28.612 163.893 26.091 163.893 23.3699C163.893 21.8759 163.959 20.3553 164.093 18.808C164.226 17.2607 164.386 15.7801 164.573 14.3662C164.76 12.9256 164.933 11.6183 165.093 10.4445C165.28 9.27071 165.44 8.29698 165.573 7.52332C165.627 6.96309 165.693 6.33617 165.774 5.64254C165.88 4.92225 165.947 4.24197 165.974 3.6017L171.576 4.0819ZM217.431 2.24114C217.404 2.45456 217.364 2.78803 217.311 3.24155C217.258 3.6684 217.204 4.10858 217.151 4.5621C217.124 4.98894 217.098 5.37577 217.071 5.72258C217.018 6.49623 216.964 7.34992 216.911 8.28364C216.884 9.19068 216.858 10.1377 216.831 11.1248C216.804 12.0852 216.778 13.0589 216.751 14.046C216.751 15.0331 216.751 15.9935 216.751 16.9272C216.751 18.021 216.764 19.2348 216.791 20.5687C216.818 21.8759 216.844 23.1831 216.871 24.4903C216.924 25.7709 216.951 26.9447 216.951 28.0118C216.978 29.0789 216.991 29.9059 216.991 30.4928C216.991 32.1468 216.804 33.4274 216.431 34.3344C216.084 35.2414 215.577 35.8684 214.91 36.2152C214.243 36.5887 213.469 36.7754 212.589 36.7754C211.629 36.7754 210.602 36.5753 209.508 36.1752C208.414 35.8017 207.387 35.2681 206.427 34.5745C205.493 33.8809 204.719 33.0806 204.106 32.1735C203.519 31.2398 203.225 30.2394 203.225 29.1723C203.225 27.8917 203.705 26.6246 204.666 25.3707C205.653 24.0902 206.947 22.9164 208.547 21.8492C210.175 20.7821 211.922 19.9285 213.79 19.2882C215.577 18.6212 217.418 18.141 219.312 17.8476C221.206 17.5275 222.913 17.3674 224.434 17.3674C226.488 17.3674 228.342 17.7142 229.996 18.4078C231.65 19.0748 232.971 20.0618 233.958 21.369C234.945 22.6763 235.439 24.2502 235.439 26.091C235.439 27.6383 235.145 29.0656 234.558 30.3728C233.971 31.68 233.024 32.8138 231.717 33.7742C230.436 34.7079 228.729 35.4415 226.595 35.9751C225.688 36.1618 224.781 36.2952 223.874 36.3752C222.993 36.482 222.153 36.562 221.353 36.6153L219.512 31.4532C220.419 31.4532 221.286 31.4399 222.113 31.4132C222.967 31.3598 223.74 31.2798 224.434 31.1731C225.528 30.9597 226.515 30.6395 227.395 30.2127C228.276 29.7859 228.969 29.2256 229.476 28.532C229.983 27.8384 230.236 27.0114 230.236 26.051C230.236 25.1439 229.983 24.3703 229.476 23.73C228.996 23.0898 228.316 22.5962 227.435 22.2494C226.555 21.9026 225.528 21.7292 224.354 21.7292C222.673 21.7292 220.966 21.9026 219.232 22.2494C217.524 22.5962 215.884 23.0764 214.31 23.69C213.136 24.1435 212.082 24.6771 211.149 25.2907C210.215 25.8776 209.481 26.4912 208.948 27.1314C208.414 27.7717 208.147 28.3853 208.147 28.9722C208.147 29.2923 208.241 29.5991 208.427 29.8926C208.641 30.1593 208.908 30.3994 209.228 30.6129C209.548 30.8263 209.868 30.9997 210.188 31.1331C210.535 31.2398 210.828 31.2931 211.068 31.2931C211.442 31.2931 211.749 31.1864 211.989 30.973C212.229 30.7329 212.349 30.2794 212.349 29.6125C212.349 28.8922 212.322 27.8651 212.269 26.5312C212.242 25.1706 212.202 23.6633 212.149 22.0093C212.122 20.3553 212.109 18.7146 212.109 17.0873C212.109 15.9668 212.109 14.833 212.109 13.6859C212.136 12.5387 212.149 11.4449 212.149 10.4045C212.149 9.36408 212.149 8.4437 212.149 7.64337C212.176 6.84304 212.189 6.21612 212.189 5.7626C212.189 5.46914 212.176 5.09565 212.149 4.64213C212.122 4.18861 212.082 3.73509 212.029 3.28157C212.002 2.80137 211.962 2.45456 211.909 2.24114H217.431ZM228.836 6.56293C229.85 7.04312 230.983 7.63003 232.237 8.32365C233.518 9.01727 234.732 9.71089 235.879 10.4045C237.053 11.0715 237.986 11.6717 238.68 12.2053L236.279 16.2869C235.772 15.8601 235.105 15.3799 234.278 14.8464C233.478 14.3128 232.597 13.7659 231.637 13.2057C230.703 12.6454 229.796 12.1252 228.916 11.645C228.035 11.1382 227.275 10.738 226.635 10.4445L228.836 6.56293ZM204.306 8.76383C205.48 8.89722 206.507 8.9906 207.387 9.04395C208.294 9.07063 209.108 9.08397 209.828 9.08397C210.868 9.08397 212.016 9.04395 213.269 8.96392C214.523 8.85721 215.804 8.72382 217.111 8.56375C218.418 8.37701 219.685 8.16359 220.913 7.92349C222.166 7.68339 223.3 7.41661 224.314 7.12316L224.434 12.0852C223.314 12.352 222.1 12.5921 220.792 12.8055C219.485 12.9923 218.165 13.1657 216.831 13.3257C215.524 13.4858 214.27 13.6058 213.069 13.6859C211.895 13.7659 210.868 13.8059 209.988 13.8059C208.654 13.8059 207.56 13.7926 206.707 13.7659C205.853 13.7392 205.079 13.6859 204.386 13.6058L204.306 8.76383ZM271.29 2.92142C271.236 3.34826 271.196 3.80178 271.17 4.28198C271.143 4.7355 271.116 5.18902 271.09 5.64254C271.063 6.01603 271.05 6.5896 271.05 7.36326C271.076 8.11023 271.09 8.96392 271.09 9.92432C271.09 10.858 271.09 11.8184 271.09 12.8055C271.09 13.7659 271.09 14.6596 271.09 15.4866C271.116 16.3136 271.13 16.9539 271.13 17.4074C271.13 19.7817 271.036 21.9426 270.849 23.8901C270.689 25.8109 270.316 27.5849 269.729 29.2123C269.169 30.8396 268.302 32.3469 267.128 33.7342C265.981 35.1214 264.407 36.4553 262.406 37.7358L257.804 34.0943C258.551 33.7742 259.378 33.3207 260.285 32.7337C261.192 32.1202 261.912 31.5066 262.446 30.893C263.22 30.0927 263.847 29.2523 264.327 28.3719C264.807 27.4916 265.18 26.5178 265.447 25.4507C265.741 24.3836 265.927 23.1965 266.007 21.8893C266.114 20.5821 266.168 19.0748 266.168 17.3674C266.168 16.6471 266.168 15.7401 266.168 14.6463C266.168 13.5525 266.154 12.4187 266.127 11.2449C266.101 10.071 266.074 8.9906 266.047 8.00352C266.021 6.98977 265.981 6.21612 265.927 5.68256C265.901 5.17569 265.834 4.66881 265.727 4.16193C265.647 3.65506 265.567 3.24155 265.487 2.92142H271.29ZM255.523 10.7246C256.163 10.8047 256.817 10.8847 257.484 10.9647C258.151 11.0181 258.818 11.0715 259.485 11.1248C260.178 11.1515 260.872 11.1648 261.566 11.1648C263.3 11.1648 265.114 11.1248 267.008 11.0448C268.902 10.9647 270.729 10.8447 272.49 10.6846C274.251 10.4979 275.785 10.2845 277.092 10.0444L277.052 15.2465C275.798 15.3799 274.318 15.5133 272.61 15.6467C270.903 15.7534 269.102 15.8468 267.208 15.9268C265.34 15.9802 263.5 16.0068 261.686 16.0068C261.125 16.0068 260.485 15.9935 259.765 15.9668C259.045 15.9401 258.324 15.9135 257.604 15.8868C256.884 15.8601 256.19 15.8334 255.523 15.8067V10.7246ZM251.401 3.6017C251.241 4.0819 251.068 4.64213 250.881 5.2824C250.694 5.89598 250.548 6.4162 250.441 6.84304C250.201 7.93683 249.947 9.25737 249.681 10.8047C249.414 12.3253 249.187 13.9126 249 15.5666C248.814 17.2207 248.72 18.848 248.72 20.4487C248.72 22.0226 248.854 23.4232 249.12 24.6504C249.387 24.0368 249.694 23.3032 250.041 22.4495C250.388 21.5691 250.721 20.7555 251.041 20.0085L253.522 21.6091C253.149 22.7563 252.775 23.9434 252.402 25.1706C252.055 26.3711 251.748 27.5183 251.481 28.612C251.215 29.6791 250.988 30.5995 250.801 31.3732C250.721 31.6666 250.654 32.0134 250.601 32.4136C250.574 32.7871 250.561 33.0939 250.561 33.334C250.561 33.5207 250.561 33.7742 250.561 34.0943C250.588 34.4144 250.614 34.7079 250.641 34.9747L246.199 35.4149C245.906 34.6145 245.572 33.5207 245.199 32.1335C244.852 30.7196 244.545 29.1723 244.278 27.4916C244.038 25.7842 243.918 24.1035 243.918 22.4495C243.918 20.2619 243.985 18.1544 244.118 16.1269C244.278 14.0994 244.465 12.2586 244.679 10.6046C244.892 8.9239 245.065 7.55 245.199 6.48289C245.306 5.92266 245.372 5.33575 245.399 4.72216C245.426 4.0819 245.452 3.50833 245.479 3.00145L251.401 3.6017ZM289.133 4.24197C289.693 4.322 290.294 4.37535 290.934 4.40203C291.574 4.42871 292.188 4.44205 292.775 4.44205C293.202 4.44205 293.842 4.44205 294.696 4.44205C295.549 4.41537 296.51 4.38869 297.577 4.36202C298.671 4.33534 299.751 4.30866 300.818 4.28198C301.885 4.25531 302.846 4.22863 303.699 4.20195C304.58 4.14859 305.26 4.10858 305.74 4.0819C306.567 4.00187 307.221 3.93517 307.701 3.88182C308.181 3.80178 308.541 3.72175 308.781 3.64172L311.382 7.20319C310.929 7.49664 310.462 7.7901 309.982 8.08356C309.502 8.37701 309.035 8.69714 308.581 9.04395C308.048 9.41744 307.407 9.91098 306.66 10.5246C305.914 11.1115 305.113 11.7384 304.259 12.4053C303.432 13.0723 302.619 13.7259 301.818 14.3662C301.045 15.0064 300.338 15.58 299.698 16.0869C300.365 15.9268 301.005 15.8201 301.618 15.7667C302.232 15.6867 302.859 15.6467 303.499 15.6467C305.767 15.6467 307.794 16.0869 309.582 16.9672C311.396 17.8476 312.823 19.0481 313.863 20.5687C314.931 22.0627 315.464 23.7834 315.464 25.7308C315.464 27.8384 314.931 29.7458 313.863 31.4532C312.796 33.1606 311.182 34.5211 309.021 35.5349C306.887 36.5487 304.206 37.0555 300.978 37.0555C299.137 37.0555 297.47 36.7888 295.976 36.2552C294.509 35.7216 293.348 34.9613 292.495 33.9743C291.641 32.9872 291.214 31.8267 291.214 30.4928C291.214 29.399 291.508 28.3853 292.094 27.4516C292.708 26.4912 293.548 25.7175 294.616 25.1306C295.709 24.5437 296.963 24.2502 298.377 24.2502C300.218 24.2502 301.765 24.6237 303.019 25.3707C304.3 26.091 305.273 27.0647 305.94 28.2919C306.634 29.5191 306.994 30.8663 307.021 32.3336L302.339 32.9738C302.312 31.5066 301.939 30.3328 301.218 29.4524C300.525 28.5453 299.591 28.0918 298.417 28.0918C297.67 28.0918 297.07 28.2919 296.616 28.6921C296.163 29.0656 295.936 29.5057 295.936 30.0126C295.936 30.7596 296.31 31.3598 297.057 31.8134C297.803 32.2669 298.777 32.4936 299.978 32.4936C302.245 32.4936 304.139 32.2269 305.66 31.6933C307.181 31.1331 308.315 30.3461 309.061 29.3323C309.835 28.2919 310.222 27.0647 310.222 25.6508C310.222 24.4503 309.848 23.3966 309.101 22.4895C308.381 21.5825 307.394 20.8755 306.14 20.3686C304.886 19.8618 303.473 19.6083 301.899 19.6083C300.351 19.6083 298.937 19.8084 297.657 20.2086C296.376 20.5821 295.162 21.1289 294.015 21.8492C292.895 22.5429 291.788 23.3966 290.694 24.4103C289.627 25.3974 288.56 26.5045 287.493 27.7317L283.851 23.9701C284.571 23.3832 285.385 22.7296 286.292 22.0093C287.199 21.2623 288.119 20.4887 289.053 19.6884C290.014 18.888 290.907 18.141 291.734 17.4474C292.588 16.7271 293.308 16.1269 293.895 15.6467C294.455 15.1932 295.109 14.6596 295.856 14.046C296.603 13.4324 297.377 12.8055 298.177 12.1652C298.977 11.4983 299.738 10.8714 300.458 10.2845C301.178 9.67088 301.778 9.15066 302.259 8.72382C301.859 8.72382 301.338 8.73716 300.698 8.76383C300.058 8.79051 299.351 8.81719 298.577 8.84387C297.83 8.87055 297.07 8.89722 296.296 8.9239C295.549 8.95058 294.842 8.9906 294.175 9.04395C293.535 9.07063 293.002 9.09731 292.575 9.12398C292.041 9.15066 291.481 9.19068 290.894 9.24403C290.307 9.29739 289.774 9.36408 289.293 9.44412L289.133 4.24197ZM350.875 1.00063C351.222 1.5075 351.582 2.08107 351.955 2.72134C352.356 3.3616 352.729 4.00187 353.076 4.64213C353.423 5.25572 353.716 5.80261 353.956 6.28281L350.595 7.68339C350.328 7.14983 350.021 6.57626 349.675 5.96268C349.354 5.34909 349.008 4.7355 348.634 4.12192C348.287 3.48165 347.94 2.89474 347.594 2.36119L350.875 1.00063ZM356.477 0.000213711C356.824 0.480412 357.198 1.04064 357.598 1.68091C357.998 2.32117 358.385 2.96144 358.758 3.6017C359.132 4.24197 359.439 4.8022 359.679 5.2824L356.357 6.72299C355.904 5.89598 355.384 4.9756 354.797 3.96185C354.236 2.9481 353.69 2.06773 353.156 1.32076L356.477 0.000213711ZM355.037 8.56375C354.85 8.93724 354.677 9.39076 354.517 9.92432C354.383 10.4312 354.263 10.8981 354.156 11.3249C353.916 12.312 353.623 13.4191 353.276 14.6463C352.956 15.8468 352.542 17.1006 352.035 18.4078C351.555 19.715 350.982 21.0089 350.315 22.2894C349.675 23.57 348.941 24.7705 348.114 25.8909C346.913 27.4916 345.513 28.9855 343.912 30.3728C342.338 31.76 340.551 33.0139 338.55 34.1343C336.576 35.2548 334.402 36.2018 332.027 36.9755L327.665 32.1735C330.333 31.5332 332.627 30.7463 334.548 29.8125C336.496 28.8788 338.176 27.8117 339.59 26.6112C341.004 25.4107 342.258 24.1302 343.352 22.7696C344.232 21.6492 344.993 20.4353 345.633 19.1281C346.273 17.8209 346.793 16.5137 347.193 15.2065C347.594 13.8726 347.874 12.6321 348.034 11.485C347.66 11.485 347.007 11.485 346.073 11.485C345.139 11.485 344.059 11.485 342.832 11.485C341.605 11.485 340.311 11.485 338.95 11.485C337.59 11.485 336.282 11.485 335.028 11.485C333.775 11.485 332.641 11.485 331.627 11.485C330.64 11.485 329.906 11.485 329.426 11.485C328.492 11.485 327.599 11.4983 326.745 11.525C325.891 11.5517 325.198 11.5917 324.664 11.645V6.00269C325.064 6.05605 325.545 6.10941 326.105 6.16276C326.692 6.21612 327.279 6.25613 327.866 6.28281C328.479 6.30949 328.999 6.32283 329.426 6.32283C329.853 6.32283 330.467 6.32283 331.267 6.32283C332.067 6.32283 332.974 6.32283 333.988 6.32283C335.028 6.32283 336.109 6.32283 337.229 6.32283C338.377 6.32283 339.51 6.32283 340.631 6.32283C341.778 6.32283 342.845 6.32283 343.832 6.32283C344.819 6.32283 345.673 6.32283 346.393 6.32283C347.113 6.32283 347.634 6.32283 347.954 6.32283C348.354 6.32283 348.834 6.30949 349.394 6.28281C349.981 6.25613 350.542 6.16276 351.075 6.00269L355.037 8.56375ZM365.717 6.36284C366.544 6.38952 367.318 6.4162 368.038 6.44288C368.785 6.44288 369.426 6.44288 369.959 6.44288C370.386 6.44288 371.04 6.44288 371.92 6.44288C372.827 6.44288 373.881 6.44288 375.081 6.44288C376.282 6.44288 377.562 6.44288 378.923 6.44288C380.283 6.44288 381.644 6.44288 383.005 6.44288C384.392 6.44288 385.686 6.44288 386.886 6.44288C388.087 6.44288 389.127 6.44288 390.007 6.44288C390.914 6.44288 391.568 6.44288 391.968 6.44288C392.475 6.44288 393.075 6.44288 393.769 6.44288C394.489 6.4162 395.21 6.38952 395.93 6.36284C395.903 6.97643 395.877 7.63003 395.85 8.32365C395.85 8.9906 395.85 9.63086 395.85 10.2444C395.85 10.6179 395.85 11.2048 395.85 12.0052C395.85 12.7788 395.85 13.7125 395.85 14.8063C395.85 15.8734 395.85 17.0206 395.85 18.2478C395.85 19.4483 395.85 20.6621 395.85 21.8893C395.85 23.1164 395.85 24.2769 395.85 25.3707C395.85 26.4378 395.85 27.3715 395.85 28.1719C395.85 28.9455 395.85 29.5057 395.85 29.8526C395.85 30.2527 395.85 30.7596 395.85 31.3732C395.877 31.9601 395.89 32.5603 395.89 33.1739C395.89 33.7608 395.89 34.281 395.89 34.7346C395.917 35.1614 395.93 35.3882 395.93 35.4149H390.408C390.408 35.3615 390.408 35.0414 390.408 34.4545C390.434 33.8409 390.448 33.1206 390.448 32.2936C390.474 31.4666 390.488 30.6929 390.488 29.9726C390.488 29.6258 390.488 29.0389 390.488 28.2119C390.488 27.3849 390.488 26.4111 390.488 25.2907C390.488 24.1702 390.488 22.983 390.488 21.7292C390.488 20.4753 390.488 19.2482 390.488 18.0477C390.488 16.8472 390.488 15.7534 390.488 14.7663C390.488 13.7792 390.488 12.9923 390.488 12.4053C390.488 11.8184 390.488 11.525 390.488 11.525H371.16C371.16 11.525 371.16 11.8184 371.16 12.4053C371.16 12.9923 371.16 13.7792 371.16 14.7663C371.16 15.7267 371.16 16.8205 371.16 18.0477C371.16 19.2482 371.16 20.4753 371.16 21.7292C371.16 22.9564 371.16 24.1435 371.16 25.2907C371.16 26.4111 371.16 27.3849 371.16 28.2119C371.16 29.0389 371.16 29.6258 371.16 29.9726C371.16 30.4528 371.16 30.9997 371.16 31.6133C371.16 32.2002 371.16 32.7738 371.16 33.334C371.186 33.8942 371.2 34.3611 371.2 34.7346C371.2 35.1347 371.2 35.3615 371.2 35.4149H365.677C365.677 35.3615 365.677 35.1347 365.677 34.7346C365.704 34.3344 365.717 33.8409 365.717 33.254C365.744 32.667 365.757 32.0668 365.757 31.4532C365.784 30.8396 365.797 30.2927 365.797 29.8125C365.797 29.4657 365.797 28.9055 365.797 28.1318C365.797 27.3315 365.797 26.3845 365.797 25.2907C365.797 24.1969 365.797 23.0497 365.797 21.8492C365.797 20.6221 365.797 19.3949 365.797 18.1677C365.797 16.9405 365.797 15.7934 365.797 14.7263C365.797 13.6325 365.797 12.6988 365.797 11.9251C365.797 11.1515 365.797 10.5913 365.797 10.2444C365.797 9.68422 365.797 9.04395 365.797 8.32365C365.797 7.57668 365.771 6.92307 365.717 6.36284ZM392.488 28.1318V33.254H368.439V28.1318H392.488ZM421.057 10.9647C421.243 11.3916 421.483 12.0052 421.777 12.8055C422.097 13.5792 422.43 14.4195 422.777 15.3265C423.124 16.2069 423.431 17.0473 423.698 17.8476C423.964 18.6479 424.178 19.2748 424.338 19.7284L419.536 21.4091C419.429 20.9022 419.242 20.2619 418.976 19.4883C418.709 18.7146 418.415 17.9009 418.095 17.0473C417.775 16.1669 417.455 15.3265 417.135 14.5262C416.815 13.7259 416.535 13.0589 416.295 12.5254L421.057 10.9647ZM435.823 13.886C435.609 14.5262 435.422 15.0731 435.262 15.5266C435.129 15.9802 434.996 16.407 434.862 16.8072C434.355 18.8347 433.662 20.8622 432.781 22.8897C431.901 24.8905 430.781 26.7713 429.42 28.532C427.553 30.933 425.432 32.9738 423.057 34.6545C420.71 36.3086 418.362 37.5757 416.014 38.4561L411.813 34.1743C413.28 33.7742 414.827 33.1873 416.455 32.4136C418.082 31.6133 419.656 30.6529 421.177 29.5324C422.697 28.412 424.004 27.1714 425.098 25.8109C426.005 24.6637 426.806 23.3565 427.499 21.8893C428.219 20.3953 428.806 18.808 429.26 17.1273C429.74 15.4199 430.06 13.7392 430.22 12.0852L435.823 13.886ZM411.773 13.0856C412.039 13.5925 412.333 14.2461 412.653 15.0464C413 15.8468 413.347 16.6871 413.693 17.5675C414.04 18.4478 414.374 19.3015 414.694 20.1285C415.041 20.9555 415.307 21.6492 415.494 22.2094L410.612 24.0502C410.452 23.5166 410.212 22.823 409.892 21.9693C409.598 21.1156 409.265 20.2219 408.891 19.2882C408.518 18.3278 408.158 17.4474 407.811 16.6471C407.491 15.8468 407.211 15.2332 406.971 14.8063L411.773 13.0856ZM476.996 9.84428C476.782 10.2178 476.556 10.6713 476.316 11.2048C476.076 11.7117 475.862 12.2186 475.675 12.7255C475.329 13.8993 474.835 15.2465 474.195 16.7671C473.581 18.2611 472.807 19.8217 471.874 21.4491C470.967 23.0497 469.913 24.597 468.712 26.091C466.792 28.3853 464.551 30.4661 461.99 32.3336C459.455 34.201 456.307 35.8817 452.546 37.3757L447.824 33.1339C450.545 32.3336 452.893 31.4132 454.867 30.3728C456.841 29.3323 458.562 28.2252 460.029 27.0514C461.496 25.8509 462.803 24.5837 463.95 23.2498C464.884 22.2094 465.738 21.0356 466.512 19.7284C467.285 18.3945 467.952 17.0739 468.512 15.7667C469.073 14.4595 469.446 13.3124 469.633 12.3253H456.147L457.988 7.80344C458.362 7.80344 458.935 7.80344 459.709 7.80344C460.509 7.80344 461.403 7.80344 462.39 7.80344C463.404 7.80344 464.391 7.80344 465.351 7.80344C466.338 7.80344 467.192 7.80344 467.912 7.80344C468.659 7.80344 469.166 7.80344 469.433 7.80344C470.046 7.80344 470.66 7.76342 471.274 7.68339C471.914 7.60336 472.461 7.48331 472.914 7.32324L476.996 9.84428ZM463.95 3.52167C463.47 4.21529 463.003 4.96227 462.55 5.7626C462.096 6.56293 461.75 7.17651 461.509 7.60336C460.602 9.20402 459.482 10.8714 458.148 12.6054C456.841 14.3128 455.347 15.9802 453.666 17.6075C451.986 19.2082 450.198 20.6754 448.304 22.0093L443.782 18.6879C445.543 17.5942 447.09 16.4737 448.424 15.3265C449.785 14.1794 450.958 13.0456 451.946 11.9251C452.933 10.778 453.773 9.68422 454.467 8.64379C455.187 7.57668 455.8 6.62962 456.307 5.80261C456.627 5.29574 456.961 4.64213 457.308 3.8418C457.655 3.01479 457.921 2.26782 458.108 1.60087L463.95 3.52167ZM487.316 6.00269C488.33 6.00269 489.624 6.00269 491.198 6.00269C492.772 5.97602 494.426 5.92266 496.16 5.84263C497.894 5.73592 499.495 5.57585 500.962 5.36243C501.976 5.22904 502.963 5.06898 503.923 4.88223C504.91 4.69549 505.844 4.50874 506.724 4.322C507.631 4.10858 508.445 3.88182 509.165 3.64172C509.912 3.40162 510.539 3.17486 511.046 2.96144L514.328 7.36326C513.634 7.52332 513.034 7.67005 512.527 7.80344C512.02 7.93683 511.593 8.04354 511.246 8.12357C510.419 8.33699 509.526 8.55041 508.565 8.76383C507.605 8.95058 506.618 9.12398 505.604 9.28405C504.59 9.44412 503.563 9.60418 502.523 9.76425C501.002 9.97767 499.388 10.1377 497.681 10.2444C495.973 10.3512 494.319 10.4445 492.719 10.5246C491.118 10.5779 489.731 10.6179 488.557 10.6446L487.316 6.00269ZM489.037 33.5741C491.385 32.507 493.306 31.2131 494.799 29.6925C496.32 28.1452 497.441 26.3711 498.161 24.3703C498.908 22.3428 499.281 20.0752 499.281 17.5675C499.281 17.5675 499.281 17.274 499.281 16.6871C499.281 16.0735 499.281 15.1665 499.281 13.966C499.281 12.7388 499.281 11.1915 499.281 9.32407L504.524 8.72382C504.524 9.41744 504.524 10.1644 504.524 10.9647C504.524 11.7384 504.524 12.5121 504.524 13.2857C504.524 14.0594 504.524 14.7663 504.524 15.4066C504.524 16.0202 504.524 16.527 504.524 16.9272C504.524 17.3007 504.524 17.4874 504.524 17.4874C504.524 20.1552 504.19 22.6896 503.523 25.0906C502.883 27.4916 501.802 29.7058 500.282 31.7333C498.761 33.7342 496.707 35.5082 494.119 37.0555L489.037 33.5741ZM484.315 15.5666C484.875 15.62 485.476 15.6734 486.116 15.7267C486.756 15.7801 487.383 15.8067 487.997 15.8067C488.37 15.8067 489.077 15.8067 490.118 15.8067C491.158 15.8067 492.412 15.8067 493.879 15.8067C495.373 15.8067 496.974 15.8067 498.681 15.8067C500.388 15.8067 502.096 15.8067 503.803 15.8067C505.511 15.8067 507.111 15.8067 508.605 15.8067C510.099 15.8067 511.38 15.8067 512.447 15.8067C513.514 15.8067 514.234 15.8067 514.608 15.8067C514.901 15.8067 515.275 15.7934 515.728 15.7667C516.182 15.7401 516.635 15.7134 517.089 15.6867C517.569 15.6333 517.956 15.5933 518.249 15.5666V20.7288C517.716 20.6754 517.129 20.6354 516.488 20.6087C515.875 20.5821 515.288 20.5687 514.728 20.5687C514.354 20.5687 513.634 20.5687 512.567 20.5687C511.526 20.5687 510.246 20.5687 508.725 20.5687C507.231 20.5687 505.617 20.5687 503.883 20.5687C502.176 20.5687 500.455 20.5687 498.721 20.5687C497.014 20.5687 495.413 20.5687 493.919 20.5687C492.425 20.5687 491.158 20.5687 490.118 20.5687C489.077 20.5687 488.397 20.5687 488.077 20.5687C487.463 20.5687 486.81 20.5821 486.116 20.6087C485.422 20.6354 484.822 20.6754 484.315 20.7288V15.5666ZM529.25 13.0456C529.704 13.1256 530.237 13.179 530.851 13.2057C531.464 13.2323 531.984 13.2457 532.411 13.2457H550.739C551.219 13.2457 551.739 13.2323 552.3 13.2057C552.86 13.179 553.38 13.1256 553.86 13.0456V18.0877C553.353 18.0343 552.82 17.9943 552.259 17.9676C551.699 17.941 551.192 17.9276 550.739 17.9276H532.411C531.984 17.9276 531.464 17.941 530.851 17.9676C530.237 17.9943 529.704 18.0343 529.25 18.0877V13.0456ZM538.654 33.5341V15.8067H543.896V33.5341H538.654ZM527.209 30.5729C527.716 30.6262 528.263 30.6796 528.85 30.7329C529.437 30.7863 529.984 30.8129 530.49 30.8129H552.62C553.18 30.8129 553.713 30.7863 554.22 30.7329C554.754 30.6529 555.234 30.5995 555.661 30.5729V35.815C555.234 35.735 554.701 35.6816 554.06 35.655C553.447 35.6283 552.966 35.6149 552.62 35.6149H530.49C530.01 35.6149 529.477 35.6283 528.89 35.655C528.303 35.6816 527.743 35.735 527.209 35.815V30.5729ZM565.221 16.2069C565.701 16.2336 566.315 16.2736 567.062 16.327C567.809 16.3536 568.582 16.3803 569.383 16.407C570.21 16.4337 570.97 16.447 571.664 16.447C572.331 16.447 573.158 16.447 574.145 16.447C575.132 16.447 576.199 16.447 577.346 16.447C578.52 16.447 579.72 16.447 580.948 16.447C582.201 16.447 583.442 16.447 584.669 16.447C585.896 16.447 587.057 16.447 588.151 16.447C589.244 16.447 590.218 16.447 591.072 16.447C591.952 16.447 592.646 16.447 593.153 16.447C594.086 16.447 594.967 16.4203 595.794 16.367C596.621 16.2869 597.301 16.2336 597.835 16.2069V22.4895C597.381 22.4628 596.701 22.4228 595.794 22.3695C594.887 22.3161 594.006 22.2894 593.153 22.2894C592.646 22.2894 591.952 22.2894 591.072 22.2894C590.191 22.2894 589.204 22.2894 588.111 22.2894C587.017 22.2894 585.856 22.2894 584.629 22.2894C583.429 22.2894 582.201 22.2894 580.948 22.2894C579.694 22.2894 578.48 22.2894 577.306 22.2894C576.159 22.2894 575.092 22.2894 574.105 22.2894C573.144 22.2894 572.331 22.2894 571.664 22.2894C570.517 22.2894 569.343 22.3161 568.142 22.3695C566.942 22.3961 565.968 22.4362 565.221 22.4895V16.2069ZM609.363 4.322C610.057 4.8022 610.871 5.38911 611.804 6.08273C612.738 6.77635 613.699 7.53666 614.686 8.36367C615.699 9.164 616.646 9.95099 617.527 10.7246C618.407 11.4983 619.127 12.1919 619.688 12.8055L615.606 16.9672C615.099 16.407 614.432 15.7401 613.605 14.9664C612.778 14.1927 611.884 13.3924 610.924 12.5654C609.964 11.7384 609.017 10.9514 608.083 10.2044C607.149 9.45746 606.322 8.83053 605.602 8.32365L609.363 4.322ZM604.361 30.973C606.442 30.6796 608.403 30.2661 610.244 29.7325C612.085 29.1989 613.792 28.5854 615.366 27.8917C616.94 27.1981 618.38 26.4778 619.688 25.7308C621.955 24.3703 624.036 22.823 625.93 21.0889C627.824 19.3549 629.478 17.5541 630.892 15.6867C632.306 13.7926 633.427 11.9518 634.254 10.1644L637.375 15.8067C636.361 17.5942 635.107 19.3816 633.613 21.169C632.146 22.9564 630.479 24.6637 628.611 26.2911C626.744 27.8917 624.73 29.3323 622.569 30.6129C621.208 31.4399 619.741 32.2269 618.167 32.9738C616.593 33.6941 614.926 34.3344 613.165 34.8946C611.431 35.4815 609.617 35.9351 607.723 36.2552L604.361 30.973ZM641.613 26.9313H678.228V30.5729H641.613V26.9313ZM651.937 4.04188H678.188V7.24321H651.937V4.04188ZM664.943 24.7705H669.545V33.7742C669.545 34.8413 669.411 35.6816 669.144 36.2952C668.904 36.9088 668.371 37.3757 667.544 37.6958C666.743 37.9892 665.796 38.1627 664.703 38.216C663.609 38.296 662.315 38.3361 660.821 38.3361C660.741 37.6958 660.554 36.9888 660.261 36.2152C659.967 35.4415 659.66 34.7612 659.34 34.1743C659.981 34.201 660.634 34.2277 661.301 34.2544C661.968 34.281 662.555 34.2944 663.062 34.2944C663.569 34.2677 663.916 34.2544 664.102 34.2544C664.422 34.2544 664.636 34.2144 664.743 34.1343C664.876 34.0276 664.943 33.8675 664.943 33.6541V24.7705ZM648.376 32.2936L651.657 29.6525C652.297 30.0526 652.964 30.5195 653.658 31.053C654.352 31.5599 655.019 32.0801 655.659 32.6137C656.299 33.1472 656.819 33.6541 657.219 34.1343L653.698 37.0555C653.351 36.602 652.884 36.0818 652.297 35.4949C651.71 34.9347 651.07 34.3744 650.377 33.8142C649.683 33.254 649.016 32.7471 648.376 32.2936ZM642.693 3.80178L645.815 1.16069C646.482 1.61421 647.175 2.13443 647.896 2.72134C648.643 3.30825 649.323 3.89516 649.936 4.48207C650.577 5.06898 651.07 5.61587 651.417 6.12274L648.136 9.00394C647.789 8.49706 647.309 7.93683 646.695 7.32324C646.108 6.68297 645.468 6.05605 644.774 5.44246C644.081 4.82888 643.387 4.28198 642.693 3.80178ZM656.579 1.40079L660.461 0.680496C660.888 1.2674 661.301 1.93435 661.701 2.68132C662.101 3.40162 662.382 4.05522 662.542 4.64213L658.46 5.44246C658.3 4.90891 658.033 4.26864 657.66 3.52167C657.313 2.74802 656.953 2.04106 656.579 1.40079ZM659.54 13.8459V15.0864H670.305V13.8459H659.54ZM659.54 17.1273V18.4078H670.305V17.1273H659.54ZM659.54 10.6446V11.8051H670.305V10.6446H659.54ZM655.099 8.52374H674.947V20.4887H655.099V8.52374ZM650.737 10.6846V20.0885H646.415V14.2861H641.733V10.6846H650.737ZM662.622 5.36243L667.384 5.68256C667.064 6.42954 666.757 7.12316 666.463 7.76342C666.196 8.40369 665.956 8.96392 665.743 9.44412L661.941 8.96392C662.101 8.37701 662.235 7.76342 662.342 7.12316C662.475 6.45621 662.568 5.86931 662.622 5.36243ZM669.545 0.640477L674.066 1.36078C673.586 2.13443 673.106 2.85473 672.626 3.52167C672.172 4.16193 671.759 4.72216 671.385 5.20236L667.584 4.48207C667.931 3.89516 668.277 3.25489 668.624 2.56127C668.998 1.84097 669.304 1.20071 669.545 0.640477ZM650.737 18.4879C651.404 19.5816 652.337 20.382 653.538 20.8888C654.738 21.3957 656.192 21.6758 657.9 21.7292C658.887 21.7559 660.047 21.7826 661.381 21.8092C662.742 21.8359 664.196 21.8492 665.743 21.8492C667.29 21.8226 668.851 21.7959 670.425 21.7692C671.999 21.7159 673.506 21.6625 674.947 21.6091C676.414 21.5291 677.708 21.4624 678.828 21.4091C678.615 21.8359 678.388 22.4228 678.148 23.1698C677.908 23.8901 677.735 24.517 677.628 25.0506C676.347 25.1039 674.84 25.1573 673.106 25.2106C671.372 25.2373 669.571 25.264 667.704 25.2907C665.836 25.2907 664.049 25.2907 662.342 25.2907C660.634 25.264 659.154 25.224 657.9 25.1706C655.872 25.0906 654.151 24.7971 652.738 24.2903C651.35 23.7567 650.163 22.863 649.176 21.6091C648.216 22.2494 647.229 22.8897 646.215 23.5299C645.228 24.1702 644.174 24.8371 643.054 25.5308L641.413 21.7292C642.347 21.3024 643.347 20.8088 644.414 20.2486C645.508 19.6617 646.548 19.0748 647.535 18.4879H650.737ZM689.229 2.96144H700.594V7.84345H689.229V2.96144ZM698.233 2.96144H703.195C703.195 4.24197 703.248 5.6959 703.355 7.32324C703.461 8.9239 703.688 10.6446 704.035 12.4854C704.382 14.2995 704.902 16.1669 705.596 18.0877C706.289 20.0085 707.21 21.9159 708.357 23.8101C709.531 25.6775 710.998 27.4782 712.759 29.2123C714.519 30.9463 716.627 32.547 719.081 34.0143C718.734 34.281 718.308 34.6679 717.801 35.1748C717.294 35.6816 716.8 36.2018 716.32 36.7354C715.867 37.2956 715.493 37.7892 715.2 38.216C712.692 36.6687 710.518 34.9347 708.677 33.0139C706.836 31.0664 705.289 29.0122 704.035 26.8513C702.781 24.6637 701.767 22.4628 700.994 20.2486C700.22 18.0077 699.633 15.8334 699.233 13.7259C698.833 11.5917 698.566 9.60418 698.433 7.76342C698.299 5.92266 698.233 4.322 698.233 2.96144ZM696.512 11.7651L701.994 12.7655C701.087 16.7138 699.873 20.3019 698.353 23.5299C696.832 26.7579 695.005 29.5991 692.87 32.0535C690.763 34.5078 688.322 36.5753 685.547 38.256C685.254 37.9092 684.84 37.4824 684.307 36.9755C683.773 36.4953 683.213 36.0018 682.626 35.4949C682.066 35.0147 681.572 34.6279 681.146 34.3344C685.334 32.2269 688.669 29.2656 691.15 25.4507C693.631 21.6091 695.418 17.0473 696.512 11.7651ZM743.888 7.32324C743.621 9.35074 743.274 11.5116 742.847 13.8059C742.42 16.1002 741.847 18.4212 741.127 20.7688C740.353 23.4632 739.446 25.7842 738.405 27.7317C737.365 29.6791 736.218 31.1864 734.964 32.2535C733.737 33.294 732.39 33.8142 730.922 33.8142C729.455 33.8142 728.095 33.3207 726.841 32.3336C725.614 31.3198 724.626 29.9326 723.879 28.1719C723.159 26.4111 722.799 24.4103 722.799 22.1694C722.799 19.8484 723.266 17.6608 724.2 15.6067C725.133 13.5525 726.427 11.7384 728.081 10.1644C729.762 8.56375 731.709 7.3099 733.924 6.40286C736.165 5.49582 738.579 5.0423 741.167 5.0423C743.648 5.0423 745.875 5.44246 747.849 6.24279C749.85 7.04312 751.558 8.15025 752.972 9.56417C754.385 10.9781 755.466 12.6321 756.213 14.5262C756.96 16.4203 757.333 18.4612 757.333 20.6487C757.333 23.4499 756.76 25.9576 755.613 28.1719C754.465 30.3861 752.758 32.2135 750.49 33.6541C748.25 35.0947 745.448 36.0818 742.087 36.6153L739.086 31.8534C739.859 31.7733 740.54 31.68 741.127 31.5733C741.714 31.4666 742.274 31.3465 742.807 31.2131C744.088 30.893 745.275 30.4395 746.369 29.8526C747.489 29.239 748.463 28.492 749.29 27.6116C750.117 26.7046 750.757 25.6508 751.211 24.4503C751.691 23.2498 751.931 21.9293 751.931 20.4887C751.931 18.9147 751.691 17.4741 751.211 16.1669C750.731 14.8597 750.024 13.7259 749.09 12.7655C748.156 11.7784 747.022 11.0314 745.688 10.5246C744.355 9.99101 742.821 9.72423 741.087 9.72423C738.952 9.72423 737.072 10.1111 735.444 10.8847C733.817 11.6317 732.443 12.6054 731.323 13.8059C730.202 15.0064 729.348 16.3003 728.762 17.6875C728.201 19.0748 727.921 20.3953 727.921 21.6492C727.921 22.983 728.081 24.1035 728.401 25.0106C728.721 25.8909 729.108 26.5579 729.562 27.0114C730.042 27.4382 730.549 27.6516 731.082 27.6516C731.643 27.6516 732.19 27.3715 732.723 26.8113C733.283 26.2244 733.83 25.344 734.364 24.1702C734.897 22.9964 735.431 21.5158 735.964 19.7284C736.578 17.8076 737.098 15.7534 737.525 13.5658C737.952 11.3783 738.259 9.24404 738.446 7.16317L743.888 7.32324ZM778.498 2.76136H794.785V7.16317H778.498V2.76136ZM777.138 16.6471H799.267V21.209H777.138V16.6471ZM785.621 12.0052H790.423V32.9738C790.423 34.1743 790.277 35.1214 789.983 35.815C789.69 36.5086 789.156 37.0422 788.382 37.4157C787.582 37.7892 786.622 38.0293 785.501 38.136C784.407 38.2694 783.127 38.3227 781.66 38.296C781.553 37.6291 781.326 36.8421 780.979 35.9351C780.633 35.028 780.286 34.241 779.939 33.5741C780.953 33.6008 781.926 33.6274 782.86 33.6541C783.794 33.6808 784.434 33.6808 784.781 33.6541C785.101 33.6541 785.314 33.6008 785.421 33.4941C785.555 33.3873 785.621 33.2006 785.621 32.9338V12.0052ZM793.024 2.76136H794.225L795.185 2.48124L798.306 4.84221C797.533 6.01603 796.652 7.24321 795.665 8.52374C794.705 9.77759 793.691 10.9914 792.624 12.1652C791.557 13.3124 790.503 14.3261 789.463 15.2065C789.143 14.7797 788.703 14.2861 788.142 13.7259C787.582 13.1657 787.102 12.7255 786.702 12.4053C787.502 11.6584 788.316 10.7647 789.143 9.72423C789.97 8.6838 790.717 7.63003 791.384 6.56293C792.077 5.49582 792.624 4.5621 793.024 3.76177V2.76136ZM761.891 8.6838H774.857V13.1657H761.891V8.6838ZM767.294 0.720512L771.776 1.20071C771.402 3.33493 770.975 5.57585 770.495 7.92349C770.041 10.2711 769.561 12.6188 769.054 14.9664C768.548 17.2874 768.041 19.5416 767.534 21.7292C767.027 23.8901 766.533 25.8642 766.053 27.6516L762.132 25.6108C762.585 24.0368 763.039 22.2361 763.492 20.2086C763.972 18.1811 764.439 16.0468 764.893 13.8059C765.346 11.5383 765.773 9.29739 766.173 7.08314C766.6 4.84221 766.974 2.72134 767.294 0.720512ZM764.252 24.9305L766.853 21.5291C768.241 22.4095 769.695 23.3966 771.215 24.4903C772.763 25.5841 774.19 26.6912 775.497 27.8117C776.831 28.9322 777.885 29.9993 778.658 31.013L775.777 34.8946C775.03 33.8809 774.016 32.7871 772.736 31.6133C771.455 30.4128 770.068 29.2256 768.574 28.0518C767.107 26.878 765.666 25.8376 764.252 24.9305ZM773.176 8.6838H773.976L774.817 8.60377L777.658 9.08397C777.365 14.2861 776.711 18.7813 775.697 22.5695C774.71 26.3311 773.323 29.5057 771.535 32.0935C769.775 34.6812 767.56 36.8021 764.893 38.4561C764.599 37.8692 764.172 37.1889 763.612 36.4153C763.052 35.6683 762.518 35.0814 762.011 34.6545C764.279 33.454 766.2 31.6933 767.774 29.3724C769.348 27.0514 770.575 24.2236 771.455 20.8888C772.362 17.5541 772.936 13.7926 773.176 9.60418V8.6838ZM814.509 21.1289H839.08V24.8505H814.509V21.1289ZM817.791 28.7321L820.192 25.8509C820.859 26.2244 821.539 26.6646 822.233 27.1714C822.953 27.6783 823.62 28.1852 824.233 28.6921C824.874 29.1989 825.394 29.6525 825.794 30.0526L823.233 33.294C822.86 32.8405 822.366 32.3469 821.752 31.8134C821.139 31.2798 820.485 30.7463 819.792 30.2127C819.098 29.6525 818.431 29.1589 817.791 28.7321ZM830.796 19.6483L833.157 17.5675C833.797 17.9676 834.464 18.4345 835.158 18.9681C835.852 19.5016 836.385 19.9951 836.759 20.4487L834.278 22.7296C833.931 22.2761 833.411 21.7559 832.717 21.169C832.05 20.5821 831.41 20.0752 830.796 19.6483ZM817.151 23.0898H821.392C821.259 25.1173 820.992 27.0647 820.592 28.9322C820.218 30.7996 819.578 32.5337 818.671 34.1343C817.764 35.7083 816.484 37.0822 814.83 38.256C814.536 37.7491 814.123 37.1756 813.589 36.5353C813.082 35.9217 812.589 35.4415 812.108 35.0947C813.469 34.1877 814.496 33.0939 815.19 31.8134C815.883 30.5328 816.364 29.1456 816.63 27.6516C816.897 26.1577 817.07 24.6371 817.151 23.0898ZM824.033 0.760528H828.235C828.155 4.41537 828.195 7.91015 828.355 11.2449C828.542 14.5796 828.822 17.6608 829.196 20.4887C829.569 23.2898 830.049 25.7308 830.636 27.8117C831.223 29.8659 831.903 31.4666 832.677 32.6137C833.477 33.7608 834.371 34.3344 835.358 34.3344C835.838 34.3344 836.185 34.081 836.398 33.5741C836.612 33.0672 836.772 32.0134 836.879 30.4128C837.332 30.8396 837.852 31.2531 838.439 31.6533C839.026 32.0268 839.546 32.3336 840 32.5737C839.787 34.0943 839.48 35.2681 839.08 36.0951C838.706 36.9221 838.186 37.4957 837.519 37.8158C836.879 38.1627 836.038 38.3361 834.998 38.3361C833.264 38.3361 831.757 37.6691 830.476 36.3352C829.222 35.028 828.168 33.2006 827.315 30.853C826.488 28.4787 825.834 25.7175 825.354 22.5695C824.9 19.3949 824.567 15.9668 824.354 12.2853C824.14 8.57709 824.033 4.7355 824.033 0.760528ZM833.197 24.7705L837.199 26.2911C835.812 29.0656 833.931 31.4666 831.556 33.4941C829.182 35.5216 826.474 37.1222 823.433 38.296C823.193 37.8425 822.806 37.309 822.273 36.6954C821.766 36.0818 821.312 35.5883 820.912 35.2148C823.793 34.201 826.288 32.8004 828.395 31.013C830.529 29.2256 832.13 27.1448 833.197 24.7705ZM827.595 8.28364L829.396 5.64254C830.223 6.22945 831.076 6.92307 831.957 7.72341C832.864 8.52374 833.531 9.24403 833.957 9.8843L832.117 12.8455C831.69 12.1786 831.036 11.4183 830.156 10.5646C829.276 9.68422 828.422 8.9239 827.595 8.28364ZM835.078 12.9256L837.759 11.8851C838.266 12.8722 838.719 13.926 839.12 15.0464C839.52 16.1402 839.773 17.0873 839.88 17.8876L836.999 19.0881C836.892 18.2611 836.652 17.274 836.278 16.1269C835.932 14.9531 835.531 13.886 835.078 12.9256ZM828.315 15.0464C829.542 14.9931 830.916 14.913 832.437 14.8063C833.957 14.6729 835.558 14.5396 837.239 14.4062L837.319 17.4474C835.852 17.6342 834.424 17.8209 833.037 18.0077C831.65 18.1944 830.316 18.3545 829.035 18.4879L828.315 15.0464ZM832.037 0.96061L835.638 2.32117C834.971 3.44164 834.304 4.58878 833.637 5.7626C832.997 6.93641 832.41 7.92349 831.877 8.72382L829.316 7.56334C829.636 6.94975 829.956 6.26947 830.276 5.5225C830.623 4.74884 830.943 3.96185 831.236 3.16152C831.556 2.36119 831.823 1.62755 832.037 0.96061ZM835.398 5.2824L838.679 6.84304C837.959 7.9635 837.185 9.13732 836.358 10.3645C835.558 11.5917 834.744 12.7655 833.917 13.886C833.117 15.0064 832.357 15.9935 831.637 16.8472L829.115 15.4466C829.836 14.5662 830.583 13.5391 831.356 12.3653C832.13 11.1648 832.877 9.95099 833.597 8.72382C834.318 7.46997 834.918 6.32283 835.398 5.2824ZM813.629 8.28364L815.39 5.64254C816.217 6.22945 817.07 6.92307 817.951 7.72341C818.858 8.52374 819.538 9.24403 819.992 9.8843L818.111 12.8455C817.684 12.1786 817.03 11.4183 816.15 10.5646C815.27 9.68422 814.429 8.9239 813.629 8.28364ZM820.432 13.3657L823.113 12.4854C823.567 13.4458 823.967 14.4995 824.313 15.6467C824.66 16.7671 824.874 17.7142 824.954 18.4879L822.073 19.6083C821.993 18.7813 821.792 17.7809 821.472 16.6071C821.179 15.4333 820.832 14.3528 820.432 13.3657ZM813.909 15.6867C815.11 15.6067 816.484 15.5133 818.031 15.4066C819.605 15.2732 821.232 15.1398 822.913 15.0064L822.993 18.2878C821.526 18.4745 820.072 18.6479 818.631 18.808C817.217 18.9681 815.857 19.1148 814.549 19.2482L813.909 15.6867ZM818.031 0.96061L821.592 2.36119C820.952 3.48165 820.299 4.64213 819.632 5.84263C818.991 7.01645 818.404 8.01686 817.871 8.84387L815.31 7.72341C815.63 7.10982 815.963 6.4162 816.31 5.64254C816.657 4.84221 816.977 4.02855 817.271 3.20154C817.591 2.37453 817.844 1.62755 818.031 0.96061ZM821.392 5.2824L824.714 6.84304C823.967 8.01686 823.166 9.25737 822.313 10.5646C821.459 11.8451 820.605 13.0856 819.752 14.2861C818.898 15.4599 818.084 16.5004 817.311 17.4074L814.83 16.0468C815.577 15.0864 816.35 13.9793 817.151 12.7255C817.951 11.4716 818.725 10.1911 819.471 8.88389C820.245 7.57668 820.885 6.37618 821.392 5.2824ZM802.344 9.04395H814.589V13.4058H802.344V9.04395ZM806.666 0.720512H810.948V38.296H806.666V0.720512ZM806.586 12.0852L809.067 12.9256C808.827 14.4729 808.52 16.1002 808.147 17.8076C807.773 19.4883 807.346 21.1423 806.866 22.7696C806.386 24.397 805.853 25.9176 805.266 27.3315C804.705 28.7454 804.105 29.9593 803.465 30.973C803.251 30.3861 802.931 29.7058 802.504 28.9322C802.104 28.1318 801.744 27.4649 801.424 26.9313C801.984 26.051 802.531 25.0372 803.065 23.8901C803.598 22.7163 804.092 21.4624 804.545 20.1285C804.999 18.768 805.399 17.4074 805.746 16.0468C806.093 14.6596 806.373 13.3391 806.586 12.0852ZM810.708 14.7263C810.921 14.9931 811.241 15.4733 811.668 16.1669C812.095 16.8338 812.549 17.5808 813.029 18.4078C813.536 19.2082 813.989 19.9551 814.389 20.6487C814.79 21.3157 815.07 21.7959 815.23 22.0893L812.949 25.4107C812.762 24.8238 812.495 24.1302 812.148 23.3299C811.802 22.5028 811.428 21.6625 811.028 20.8088C810.628 19.9285 810.241 19.1148 809.868 18.3678C809.494 17.5942 809.201 16.9672 808.987 16.487L810.708 14.7263Z" fill="white"/>
</svg>
