<svg width="57" height="55" viewBox="0 0 57 55" fill="none" xmlns="http://www.w3.org/2000/svg">
<path d="M57 27.3453C57 28.2409 56.9543 29.1343 56.8628 30.0256C56.7713 30.9169 56.6345 31.8017 56.4524 32.6801C56.2703 33.5584 56.0438 34.4262 55.7728 35.2832C55.5019 36.1402 55.1878 36.9824 54.8306 37.8099C54.4734 38.6373 54.0748 39.4459 53.6348 40.2357C53.1948 41.0256 52.7155 41.7928 52.1969 42.5375C51.6783 43.2822 51.123 44.0006 50.5308 44.6929C49.9387 45.3852 49.3126 46.048 48.6525 46.6813C47.9925 47.3146 47.3017 47.9153 46.5802 48.4835C45.8587 49.0516 45.1099 49.5845 44.3338 50.082C43.5577 50.5796 42.758 51.0395 41.9348 51.4617C41.1116 51.8838 40.2688 52.2663 39.4065 52.609C38.5441 52.9517 37.6663 53.2531 36.7731 53.5131C35.8799 53.773 34.9755 53.9904 34.0601 54.1651C33.1446 54.3398 32.2224 54.4711 31.2935 54.5589C30.3646 54.6467 29.4334 54.6905 28.5 54.6905C27.5666 54.6905 26.6354 54.6467 25.7065 54.5589C24.7776 54.4711 23.8554 54.3398 22.9399 54.1651C22.0245 53.9904 21.1201 53.773 20.2269 53.5131C19.3337 53.2531 18.4559 52.9517 17.5935 52.609C16.7312 52.2663 15.8884 51.8838 15.0652 51.4617C14.242 51.0395 13.4423 50.5796 12.6662 50.082C11.8901 49.5845 11.1413 49.0516 10.4198 48.4835C9.69826 47.9153 9.00748 47.3146 8.34746 46.6813C7.68744 46.048 7.06135 45.3852 6.4692 44.6929C5.87705 44.0006 5.32169 43.2822 4.80311 42.5375C4.28454 41.7928 3.80525 41.0256 3.36524 40.2357C2.92524 39.4459 2.52663 38.6373 2.16943 37.8099C1.81223 36.9824 1.49816 36.1402 1.2272 35.2832C0.956246 34.4262 0.729718 33.5584 0.547619 32.6801C0.36552 31.8017 0.228726 30.9169 0.137236 30.0256C0.045745 29.1343 0 28.2409 0 27.3453C0 26.4497 0.045745 25.5562 0.137236 24.665C0.228726 23.7737 0.36552 22.8889 0.547619 22.0105C0.729718 21.1321 0.956246 20.2644 1.2272 19.4074C1.49816 18.5503 1.81223 17.7081 2.16943 16.8807C2.52663 16.0533 2.92524 15.2446 3.36524 14.4548C3.80525 13.665 4.28454 12.8977 4.80312 12.1531C5.32169 11.4084 5.87705 10.6899 6.4692 9.99762C7.06135 9.30531 7.68744 8.64252 8.34746 8.00924C9.00748 7.37597 9.69826 6.77525 10.4198 6.20709C11.1413 5.63893 11.8901 5.10607 12.6662 4.60851C13.4423 4.11094 14.242 3.65107 15.0652 3.2289C15.8884 2.80672 16.7312 2.42426 17.5935 2.08153C18.4559 1.73881 19.3337 1.43746 20.2269 1.17748C21.1201 0.917502 22.0245 0.700153 22.9399 0.525431C23.8554 0.35071 24.7776 0.219458 25.7065 0.131675C26.6354 0.0438916 27.5666 0 28.5 0C29.4334 0 30.3646 0.0438916 31.2935 0.131675C32.2224 0.219458 33.1446 0.35071 34.0601 0.525431C34.9755 0.700153 35.8799 0.917502 36.7731 1.17748C37.6663 1.43746 38.5441 1.73881 39.4065 2.08153C40.2688 2.42426 41.1116 2.80672 41.9348 3.2289C42.758 3.65107 43.5577 4.11094 44.3338 4.60851C45.1099 5.10607 45.8587 5.63893 46.5802 6.20709C47.3017 6.77525 47.9925 7.37597 48.6525 8.00924C49.3126 8.64252 49.9387 9.30531 50.5308 9.99761C51.123 10.6899 51.6783 11.4084 52.1969 12.1531C52.7155 12.8977 53.1948 13.665 53.6348 14.4548C54.0748 15.2446 54.4734 16.0533 54.8306 16.8807C55.1878 17.7081 55.5019 18.5503 55.7728 19.4074C56.0438 20.2644 56.2703 21.1321 56.4524 22.0105C56.6345 22.8889 56.7713 23.7737 56.8628 24.665C56.9543 25.5562 57 26.4497 57 27.3453Z" fill="#0B3D2E"/>
</svg>
