<svg width="105" height="102" viewBox="0 0 105 102" fill="none" xmlns="http://www.w3.org/2000/svg">
<path d="M103.46 42.3355H98.5037C98.5266 39.0053 98.602 35.6638 98.5535 32.3337C99.522 32.9393 100.491 33.5449 101.459 34.1505C103.122 35.1906 104.65 32.5617 102.993 31.5258C97.3464 27.9949 91.6994 24.4641 86.0525 20.9332C77.0593 15.31 68.0661 9.68678 59.0728 4.06356C57.0184 2.77899 54.964 1.49443 52.9096 0.209857C52.4648 -0.0682422 51.8198 -0.0716569 51.3754 0.209857C45.7976 3.74284 40.2199 7.27582 34.6421 10.8088C25.7629 16.4329 16.8837 22.0571 8.00449 27.6812C5.98127 28.9627 3.95803 30.2443 1.93481 31.5258C0.286582 32.5698 1.80992 35.2014 3.46903 34.1505C4.45627 33.5252 5.4435 32.8999 6.43074 32.2746V42.267C4.83081 42.261 3.23224 42.2743 1.63932 42.3355C1.58245 42.3377 1.52511 42.3355 1.46816 42.3355C-0.487766 42.3355 -0.491005 45.3752 1.46816 45.3752H6.43073V92.382C5.37225 92.3879 4.31489 92.4059 3.2601 92.446C3.20455 92.4481 3.14854 92.446 3.09291 92.446C2.27129 92.446 1.57304 93.1424 1.57304 93.9659V100.413C1.57304 101.235 2.26939 101.933 3.09291 101.933H86.0133C88.9842 101.933 91.9774 102.028 94.9551 101.981C97.1957 102.007 99.4374 102.018 101.668 101.933C101.724 101.931 101.78 101.933 101.835 101.933C102.301 101.933 102.655 101.759 102.899 101.497C103.173 101.252 103.355 100.891 103.355 100.413V93.9659C103.355 93.1443 102.659 92.446 101.835 92.446H98.4973V45.4437C100.097 45.4498 101.696 45.4364 103.289 45.3752C103.346 45.3731 103.403 45.3752 103.46 45.3752C105.416 45.3752 105.419 42.3355 103.46 42.3355ZM100.315 98.8931H7.12756C6.89788 98.8931 6.66486 98.888 6.43073 98.8816C5.82998 98.8651 5.21877 98.8371 4.61279 98.8349V95.4858H97.8005C98.0302 95.4858 98.2632 95.4908 98.4973 95.4973C99.0981 95.5137 99.7093 95.5417 100.315 95.5439L100.315 98.8931ZM9.47048 30.6131C14.2071 27.6128 18.9438 24.6126 23.6804 21.6124C31.6223 16.582 39.5641 11.5516 47.5059 6.52118C49.0644 5.53404 50.6229 4.5469 52.1813 3.55975C56.973 6.55588 61.7648 9.552 66.5565 12.5481C74.6002 17.5776 82.6438 22.6071 90.6875 27.6366C92.2775 28.6308 93.8676 29.625 95.4576 30.6192V42.3205H18.9148C15.7767 42.3205 12.6136 42.2118 9.47048 42.2793L9.47048 30.6131ZM87.6756 45.4829V47.3446H74.5976V45.4642H87.6756V45.4829ZM68.4145 92.446H62.0428V88.9703C62.0428 88.1487 61.3464 87.4505 60.5229 87.4505H58.6092V50.3844H60.5229C60.9888 50.3844 61.3425 50.2108 61.5867 49.9481C61.8608 49.7035 62.0428 49.343 62.0428 48.8645V45.3752H71.5579V48.8645C71.5579 49.6861 72.2542 50.3844 73.0777 50.3844H74.9284V87.4505H73.0777C72.2561 87.4505 71.5579 88.1468 71.5579 88.9703V92.446H68.4145ZM39.9239 92.446H33.5398V88.9703C33.5398 88.1487 32.8435 87.4505 32.02 87.4505H29.9997V50.3844H32.02C32.4858 50.3844 32.8396 50.2108 33.0838 49.9481C33.3578 49.7035 33.5398 49.343 33.5398 48.8645V45.3752H42.8853V48.8645C42.8853 49.6861 43.5816 50.3844 44.4052 50.3844H46.288V87.4505H44.4052C43.5835 87.4505 42.8853 88.1468 42.8853 88.9703V92.446H39.9239ZM17.4221 90.4902H30.5001V92.3706H17.4221V90.4902ZM59.003 45.4737V47.3446H45.925V45.4642H59.003V45.4737ZM59.003 92.3706H45.925V90.4902H59.003V92.3706ZM55.5695 60.8331V87.4505H49.3277V50.3844H55.5695V60.8331ZM17.4221 45.4737V45.4642H30.5001V47.3446H17.4221V45.4737ZM20.7181 76.95V50.3844H26.9599V87.4505H20.7181V76.95ZM87.6756 92.3706H74.5976V90.4902H87.6756V92.3706ZM84.2099 60.8331V87.4505H77.9681V50.3844H84.2099L84.2099 60.8331ZM9.47048 81.1968V45.3752H14.3824V48.8645C14.3824 49.6861 15.0787 50.3844 15.9023 50.3844H17.6784V87.4505H15.9023C15.0806 87.4505 14.3824 88.1468 14.3824 88.9703V92.4426C12.7482 92.4348 11.1095 92.4087 9.47048 92.392L9.47048 81.1968ZM91.9775 92.446H90.7153V88.9703C90.7153 88.1487 90.019 87.4505 89.1955 87.4505H87.2497V50.3844H89.1955C89.6613 50.3844 90.015 50.2109 90.2592 49.9481C90.5333 49.7036 90.7153 49.343 90.7153 48.8645V45.3752H90.906C92.4196 45.3752 93.938 45.3966 95.4576 45.4158V92.446H91.9775Z" fill="#2A4551"/>
</svg>
