<svg width="105" height="102" viewBox="0 0 105 102" fill="none" xmlns="http://www.w3.org/2000/svg">
<path fill-rule="evenodd" clip-rule="evenodd" d="M64.9942 73.8429C64.9942 74.7179 64.281 75.4287 63.4032 75.4287L42.2388 75.4291C41.3609 75.4291 40.6478 74.7186 40.6478 73.8434C40.6478 72.9684 41.3607 72.2577 42.2388 72.2577L63.4032 72.2572C64.2813 72.2574 64.9942 72.968 64.9942 73.8429ZM103.945 76.2308C104.772 75.9354 105.203 75.0258 104.906 74.2042C104.609 73.3785 103.699 72.9497 102.872 73.2437L97.1443 75.2904C101.287 67.8132 103.457 59.4278 103.457 50.7858C103.456 22.7199 80.657 -0.000694087 52.499 1.59029e-08C42.2855 0.000231075 32.4312 2.99961 24.0017 8.67732C23.274 9.16766 23.0823 10.1548 23.5757 10.8801C24.0649 11.6043 25.0555 11.7951 25.7833 11.305C33.6846 5.98395 42.9223 3.17168 52.4992 3.17145C78.8413 3.17076 100.274 24.53 100.275 50.7858C100.275 59.2527 98.0542 67.454 93.8256 74.6959L91.3565 67.8227C91.059 66.9984 90.1474 66.5695 89.3217 66.8663C88.4947 67.1603 88.0633 68.0685 88.3608 68.8929L91.929 78.8185C92.2272 79.6641 93.1385 80.0926 93.9864 79.7869L103.945 76.2308ZM81.4249 90.6936C80.9329 89.9683 79.945 89.7786 79.2173 90.2687C71.316 95.5898 62.0755 98.402 52.5013 98.4023C26.1567 98.4032 4.72363 77.0426 4.72293 50.7881C4.7227 42.3213 6.94353 34.12 11.1736 26.878L13.6441 33.7499C13.9416 34.5754 14.8518 35.0042 15.6788 34.7077C16.5059 34.4125 16.9361 33.5054 16.6398 32.6811L13.0688 22.7555C12.7783 21.9118 11.8472 21.4776 11.0114 21.7871L1.05518 25.3434C0.228113 25.6388 -0.203523 26.5457 0.0942132 27.37C0.389165 28.1943 1.30187 28.6243 2.12894 28.3278L7.85345 26.2836C3.71067 33.7608 1.54066 42.1451 1.54089 50.7881C1.54159 78.8515 24.344 101.575 52.5013 101.574C62.7149 101.574 72.5678 98.573 80.9972 92.8953C81.7266 92.4038 81.9169 91.4192 81.4249 90.6936ZM66.6973 50.4928C66.6975 58.5856 60.0898 65.1719 51.9685 65.1721C43.8486 65.1723 37.2404 58.5863 37.2402 50.4935C37.24 42.3978 43.8477 35.813 51.9678 35.8128C56.4619 35.8128 60.4898 37.831 63.1948 41.005L52.2563 52.8524L46.2257 46.531C45.6211 45.8966 44.6133 45.8725 43.9765 46.4737C43.3411 47.0776 43.3158 48.0807 43.919 48.7153L51.1208 56.2669C51.7536 56.9324 52.8225 56.922 53.4437 56.2468L65.0229 43.709C66.09 45.7381 66.6973 48.0441 66.6973 50.4928ZM72.0208 31.4493C72.6146 30.804 73.6197 30.7612 74.2671 31.3558C74.9146 31.9477 74.9561 32.9522 74.3597 33.5947L67.2881 41.2537C68.9302 43.9521 69.8791 47.1141 69.8793 50.4928C69.8795 60.3344 61.8444 68.3419 51.9685 68.3422C42.094 68.3424 34.0584 60.3351 34.0582 50.4935C34.0579 40.6507 42.0931 32.6416 51.9676 32.6413C57.2916 32.6411 62.0778 34.9709 65.3606 38.6579L72.0208 31.4493ZM77.5091 63.9571C81.0594 52.7435 80.8259 39.3737 80.4985 27.4028C70.6662 25.7803 60.6282 22.3704 52.4995 17.6128C44.3657 22.3718 34.3325 25.781 24.4981 27.4042C24.1714 39.3753 23.9412 52.7451 27.4922 63.9599C31.4036 76.3129 39.5882 84.4203 52.5013 88.7336C65.414 84.4194 73.5956 76.3115 77.5091 63.9571ZM82.2863 24.4717C72.1401 22.9676 61.5989 19.4254 53.3263 14.4092C52.8169 14.1006 52.179 14.1006 51.6722 14.4092C43.4509 19.4069 32.8148 22.9792 22.7099 24.4733C21.9485 24.5855 21.3762 25.2282 21.3548 25.9977C21.0067 38.5499 20.6143 52.7772 24.4587 64.914C28.7521 78.472 37.7637 87.302 52.0091 91.9107C52.3345 92.0154 52.6652 92.0154 52.9917 91.9107C67.2368 87.3015 76.2492 78.4708 80.5421 64.9128C84.3846 52.7761 83.9901 38.5487 83.6413 25.9966C83.6214 25.2264 83.0505 24.5839 82.2863 24.4717Z" fill="black"/>
</svg>
