<svg width="281" height="86" viewBox="0 0 281 86" fill="none" xmlns="http://www.w3.org/2000/svg">
<path d="M2.03008e-06 9.03708H32.3269V11.3589H2.03008e-06V9.03708ZM6.64397 27.7545H31.1124V30.0406H6.64397V27.7545ZM15.8955 19.1816H25.3614V21.432H15.8955V19.1816ZM5.42948 0.964294H7.85846V32.7911H5.42948V0.964294ZM14.8239 0.178447H17.2529V23.218H14.8239V0.178447ZM24.3255 0.607092H26.7188V23.0394H24.3255V0.607092ZM42.1466 9.21568V13.3235H61.7213V9.21568H42.1466ZM42.1466 3.21467V7.28678H61.7213V3.21467H42.1466ZM39.789 1.17862H64.186V15.3596H39.789V1.17862ZM55.7203 14.0022C56.5776 15.1691 57.673 16.2645 59.0066 17.2885C60.3401 18.2886 61.8166 19.1816 63.4359 19.9675C65.079 20.7295 66.734 21.3368 68.401 21.7892C68.2105 21.9321 68.0081 22.1345 67.7937 22.3965C67.6032 22.6346 67.4127 22.8846 67.2222 23.1466C67.0555 23.3847 66.9007 23.611 66.7579 23.8253C65.0909 23.2776 63.424 22.5632 61.757 21.6821C60.1139 20.7771 58.5898 19.7413 57.1848 18.5744C55.8036 17.4075 54.6487 16.1454 53.72 14.788L55.7203 14.0022ZM48.3976 14.0022L50.4694 14.8952C49.5169 16.2049 48.3262 17.4433 46.8974 18.6101C45.4924 19.777 43.9683 20.8248 42.3252 21.7535C40.6821 22.6584 39.0389 23.3966 37.3958 23.9682C37.3005 23.7538 37.1577 23.5276 36.9671 23.2895C36.7766 23.0513 36.5742 22.8132 36.3599 22.5751C36.1694 22.3369 35.9789 22.1464 35.7884 22.0035C37.4077 21.5273 39.0151 20.8843 40.6106 20.0746C42.2061 19.2412 43.6826 18.3124 45.0399 17.2885C46.3973 16.2645 47.5165 15.1691 48.3976 14.0022ZM45.3614 20.289H47.7547V22.4322C47.7547 23.2895 47.6713 24.1825 47.5046 25.1112C47.3379 26.0399 46.9926 26.9806 46.4687 27.9331C45.9687 28.8618 45.2066 29.7548 44.1826 30.6121C43.1587 31.4694 41.7775 32.2553 40.0391 32.9697C39.92 32.7553 39.7652 32.5291 39.5747 32.291C39.3842 32.0767 39.1818 31.8504 38.9675 31.6123C38.777 31.398 38.5865 31.2194 38.396 31.0765C39.9676 30.4573 41.2179 29.7906 42.1466 29.0762C43.0991 28.3379 43.8016 27.5878 44.2541 26.8258C44.7065 26.0637 45.0042 25.3017 45.1471 24.5397C45.29 23.7776 45.3614 23.0513 45.3614 22.3607V20.289ZM50.6837 2.25022H53.1127V14.4308H50.6837V2.25022ZM56.7919 20.2532H59.2209V32.6839H56.7919V20.2532ZM78.6851 7.25106V9.96581H97.1168V7.25106H78.6851ZM78.6851 2.92891V5.57221H97.1168V2.92891H78.6851ZM76.3633 1.1429H99.4743V11.7161H76.3633V1.1429ZM72.0768 13.8593H103.475V15.8597H72.0768V13.8593ZM87.8652 18.2529H100.76V20.2175H87.8652V18.2529ZM76.6133 18.4672H85.5077V20.3247H76.6133V18.4672ZM76.6133 23.0037H85.5077V24.8612H76.6133V23.0037ZM91.4729 20.0746C92.5446 22.7179 94.1877 24.9921 96.4023 26.8972C98.6408 28.7785 101.284 30.1001 104.332 30.8622C104.189 31.0051 104.023 31.1837 103.832 31.398C103.642 31.6361 103.463 31.8742 103.296 32.1124C103.13 32.3505 102.987 32.5648 102.868 32.7553C99.7243 31.8028 97.0096 30.2906 94.7235 28.2189C92.4612 26.1471 90.7347 23.6229 89.5441 20.6462L91.4729 20.0746ZM100.01 18.2529H100.474L100.903 18.1457L102.368 18.7887C101.558 21.1939 100.403 23.3014 98.9028 25.1112C97.4263 26.8972 95.7356 28.4094 93.8305 29.6477C91.9492 30.886 89.9727 31.8504 87.9009 32.541C87.7819 32.2314 87.5913 31.8862 87.3294 31.5051C87.0674 31.1479 86.8174 30.8622 86.5793 30.6478C88.0081 30.2192 89.4131 29.6477 90.7943 28.9333C92.1993 28.1951 93.4971 27.3259 94.6878 26.3257C95.9023 25.3017 96.962 24.1468 97.8669 22.8608C98.7956 21.5749 99.51 20.1699 100.01 18.6458V18.2529ZM71.7554 28.5046C72.9222 28.4094 74.2439 28.2903 75.7203 28.1474C77.1967 27.9807 78.7684 27.8021 80.4354 27.6116C82.1023 27.3973 83.7812 27.1949 85.4719 27.0044V29.0047C83.043 29.3143 80.6497 29.6239 78.2922 29.9334C75.9346 30.2192 73.839 30.4692 72.0054 30.6836L71.7554 28.5046ZM84.2575 14.5023H86.5435V32.7553H84.2575V14.5023ZM75.2202 14.538H77.4349V29.0404H75.2202V14.538ZM108.08 10.3944H139.442V12.8234H108.08V10.3944ZM125.332 11.3589C126.118 14.2641 127.178 16.9789 128.512 19.5031C129.869 22.0274 131.5 24.2301 133.405 26.1114C135.334 27.9688 137.525 29.4215 139.978 30.4692C139.787 30.6359 139.573 30.8503 139.335 31.1122C139.12 31.398 138.906 31.6718 138.692 31.9338C138.501 32.2195 138.335 32.4696 138.192 32.6839C135.644 31.4694 133.381 29.8501 131.405 27.8259C129.452 25.8018 127.773 23.4443 126.368 20.7533C124.987 18.0624 123.856 15.1333 122.975 11.9661L125.332 11.3589ZM122.511 0.0712878H125.047C125.047 1.57154 124.999 3.2623 124.904 5.14357C124.832 7.00102 124.654 8.95373 124.368 11.0017C124.082 13.0258 123.618 15.0738 122.975 17.1456C122.332 19.1935 121.427 21.182 120.26 23.1109C119.093 25.0398 117.605 26.8258 115.795 28.4689C114.009 30.112 111.818 31.5289 109.223 32.7196C109.032 32.4101 108.758 32.0648 108.401 31.6837C108.068 31.3027 107.734 30.9931 107.401 30.755C109.949 29.6358 112.092 28.3141 113.83 26.7901C115.569 25.2422 116.986 23.5633 118.081 21.7535C119.2 19.9199 120.058 18.0267 120.653 16.074C121.272 14.1213 121.701 12.1805 121.939 10.2516C122.177 8.32267 122.32 6.48903 122.368 4.75064C122.439 3.01226 122.487 1.45247 122.511 0.0712878ZM145.225 2.53599L146.333 0.857132C147.166 1.07145 148.047 1.34531 148.976 1.6787C149.905 2.01209 150.798 2.34548 151.655 2.67887C152.536 3.01226 153.25 3.33374 153.798 3.64331L152.762 5.53649C152.191 5.2031 151.476 4.8578 150.619 4.5006C149.762 4.1434 148.857 3.7862 147.904 3.42899C146.976 3.07179 146.083 2.77412 145.225 2.53599ZM143.404 10.323C144.689 9.98962 146.225 9.57288 148.011 9.0728C149.797 8.5489 151.607 8.025 153.441 7.50111L153.727 9.39428C152.107 9.94199 150.476 10.4778 148.833 11.0017C147.214 11.5256 145.725 11.99 144.368 12.3948L143.404 10.323ZM158.656 2.67887H173.123V4.53632H157.227L158.656 2.67887ZM172.48 2.67887H172.873L173.266 2.57171L174.909 3.07179C174.409 4.00052 173.837 4.92925 173.194 5.85797C172.551 6.76289 171.908 7.52492 171.265 8.14407L169.336 7.42966C169.908 6.85814 170.48 6.17946 171.051 5.39361C171.623 4.58395 172.099 3.81001 172.48 3.07179V2.67887ZM163.228 3.32183H165.443C165.252 4.58395 164.943 5.71509 164.514 6.71526C164.086 7.69161 163.478 8.5489 162.692 9.28712C161.93 10.0253 160.93 10.6683 159.692 11.216C158.477 11.7399 156.977 12.1805 155.191 12.5377C155.072 12.2757 154.894 11.978 154.655 11.6447C154.441 11.2875 154.239 11.0136 154.048 10.8231C155.668 10.5373 157.025 10.1801 158.12 9.75148C159.24 9.32284 160.144 8.81085 160.835 8.21551C161.526 7.62017 162.061 6.91768 162.442 6.10801C162.823 5.29836 163.085 4.36963 163.228 3.32183ZM165.372 3.89336C165.538 4.6792 165.812 5.45314 166.193 6.21518C166.574 6.9534 167.134 7.65589 167.872 8.32267C168.61 8.96564 169.61 9.53716 170.872 10.0372C172.158 10.5373 173.802 10.9303 175.802 11.216C175.564 11.4541 175.314 11.7637 175.052 12.1447C174.814 12.5258 174.635 12.8711 174.516 13.1806C172.42 12.7996 170.694 12.2995 169.336 11.6804C168.003 11.0374 166.943 10.3111 166.157 9.50144C165.395 8.66797 164.8 7.79877 164.371 6.89386C163.967 5.96513 163.645 5.03641 163.407 4.10768L165.372 3.89336ZM159.371 -0.000153941L161.549 0.357049C160.954 1.64298 160.18 2.917 159.228 4.17912C158.299 5.44124 157.132 6.6081 155.727 7.67971C155.537 7.46539 155.263 7.23916 154.905 7.00102C154.548 6.76289 154.215 6.58428 153.905 6.46522C155.263 5.53649 156.394 4.5006 157.299 3.35755C158.204 2.19069 158.894 1.07145 159.371 -0.000153941ZM150.548 18.5387V21.1463H168.979V18.5387H150.548ZM150.548 22.7537V25.4327H168.979V22.7537H150.548ZM150.548 14.3237V16.9313H168.979V14.3237H150.548ZM148.19 12.6805H171.373V27.0758H148.19V12.6805ZM162.728 28.9333L164.657 27.6831C165.967 28.0879 167.289 28.5165 168.622 28.969C169.956 29.3976 171.218 29.8382 172.408 30.2906C173.599 30.7669 174.623 31.1956 175.48 31.5766L172.873 32.8268C172.111 32.4458 171.182 32.029 170.087 31.5766C169.015 31.1479 167.848 30.6955 166.586 30.2192C165.324 29.7667 164.038 29.3381 162.728 28.9333ZM154.227 27.5759L156.406 28.5761C155.429 29.1476 154.31 29.6953 153.048 30.2192C151.81 30.7669 150.524 31.267 149.19 31.7195C147.88 32.1719 146.63 32.5529 145.44 32.8625C145.321 32.6958 145.154 32.4934 144.94 32.2553C144.725 32.0409 144.499 31.8147 144.261 31.5766C144.047 31.3623 143.844 31.1837 143.654 31.0408C144.892 30.7788 146.154 30.4692 147.44 30.112C148.75 29.7548 149.988 29.3619 151.155 28.9333C152.322 28.5046 153.346 28.0522 154.227 27.5759ZM189.265 17.217H209.054V19.1816H189.265V17.217ZM188.694 23.1466H208.09V25.1112H188.694V23.1466ZM185.586 29.8977H211.233V32.0052H185.586V29.8977ZM196.981 13.895H199.302V31.1837H196.981V13.895ZM190.122 13.8593L192.266 14.3594C191.718 15.9311 191.003 17.4433 190.122 18.8959C189.265 20.3485 188.36 21.5868 187.408 22.6108C187.241 22.4917 187.038 22.3607 186.8 22.2179C186.586 22.0512 186.348 21.8964 186.086 21.7535C185.848 21.6106 185.633 21.5035 185.443 21.432C186.443 20.4795 187.348 19.3364 188.158 18.0029C188.991 16.6693 189.646 15.2881 190.122 13.8593ZM183.335 10.7874H211.376V12.9306H183.335V10.7874ZM181.549 3.35755H209.554V5.42933H181.549V3.35755ZM194.194 0.0355659H196.588V4.6792H194.194V0.0355659ZM182.085 10.7874H184.407V16.324C184.407 17.5147 184.348 18.8125 184.228 20.2175C184.133 21.5987 183.955 23.0275 183.693 24.504C183.455 25.9566 183.085 27.3973 182.585 28.8261C182.109 30.2311 181.478 31.5289 180.692 32.7196C180.573 32.5767 180.394 32.41 180.156 32.2195C179.918 32.029 179.68 31.8385 179.442 31.648C179.204 31.4575 178.989 31.3265 178.799 31.2551C179.537 30.1359 180.121 28.9333 180.549 27.6473C180.978 26.3376 181.299 25.0279 181.514 23.7181C181.752 22.3846 181.907 21.0867 181.978 19.8246C182.05 18.5625 182.085 17.3956 182.085 16.324V10.7874ZM187.193 5.96513L189.336 5.39361C189.789 6.15564 190.218 7.00102 190.622 7.92975C191.051 8.83466 191.325 9.62051 191.444 10.2873L189.158 10.966C189.015 10.2754 188.765 9.46572 188.408 8.53699C188.051 7.60827 187.646 6.75098 187.193 5.96513ZM201.91 5.14357L204.518 5.82225C204.065 6.72717 203.589 7.64399 203.089 8.57271C202.589 9.50144 202.124 10.2992 201.696 10.966L199.731 10.323C199.993 9.84674 200.255 9.31093 200.517 8.7156C200.803 8.09644 201.065 7.47729 201.303 6.85814C201.565 6.21518 201.767 5.64365 201.91 5.14357ZM222.053 14.1451V26.7186H219.731V16.3955H215.123V14.1451H222.053ZM222.053 25.7185C222.934 27.052 224.172 28.0522 225.768 28.719C227.363 29.3857 229.233 29.7548 231.376 29.8263C232.352 29.8739 233.543 29.9096 234.948 29.9334C236.377 29.9334 237.865 29.9215 239.413 29.8977C240.985 29.8739 242.497 29.8382 243.949 29.7906C245.402 29.7429 246.652 29.6834 247.7 29.612C247.605 29.8025 247.498 30.0287 247.379 30.2906C247.283 30.5764 247.188 30.8741 247.093 31.1837C247.021 31.4932 246.962 31.7671 246.914 32.0052C245.962 32.029 244.795 32.0528 243.414 32.0767C242.056 32.1243 240.639 32.1481 239.163 32.1481C237.71 32.1719 236.293 32.1719 234.912 32.1481C233.555 32.1243 232.388 32.1005 231.412 32.0767C229.006 31.9814 226.958 31.5885 225.268 30.8979C223.577 30.2311 222.172 29.1833 221.053 27.7545C220.267 28.5404 219.445 29.3262 218.588 30.112C217.755 30.8979 216.897 31.6837 216.016 32.4696L214.73 30.1478C215.54 29.5524 216.409 28.8618 217.338 28.076C218.267 27.2901 219.148 26.5043 219.981 25.7185H222.053ZM215.48 2.25022L217.302 0.928574C218.04 1.45247 218.79 2.07162 219.552 2.78603C220.315 3.47662 221.005 4.16721 221.624 4.85781C222.267 5.5484 222.767 6.19136 223.125 6.7867L221.196 8.28695C220.838 7.69161 220.35 7.03674 219.731 6.32234C219.136 5.58412 218.469 4.86971 217.731 4.17912C216.993 3.46471 216.242 2.82175 215.48 2.25022ZM234.269 4.07196H236.591V28.8261H234.269V4.07196ZM228.518 16.7169V19.3245H242.449V16.7169H228.518ZM228.518 12.5734V15.1095H242.449V12.5734H228.518ZM226.411 10.8945H244.664V21.0034H226.411V10.8945ZM224.482 1.3215H246.557V5.89369H244.307V3.17895H226.625V5.89369H224.482V1.3215ZM225.196 6.71526H245.735V8.53699H225.196V6.71526ZM223.839 23.3252H247.236V25.2541H223.839V23.3252ZM256.162 2.53599H279.488V4.85781H256.162V2.53599ZM256.162 10.8945H279.416V13.1806H256.162V10.8945ZM255.948 19.4674H279.452V21.7178H255.948V19.4674ZM254.805 2.53599H257.163V15.5382C257.163 16.8717 257.103 18.3124 256.984 19.8603C256.889 21.3844 256.674 22.9323 256.341 24.504C256.008 26.0518 255.519 27.5521 254.876 29.0047C254.234 30.4335 253.376 31.7433 252.305 32.9339C252.209 32.7673 252.043 32.5767 251.805 32.3624C251.566 32.1719 251.328 31.9814 251.09 31.7909C250.852 31.6004 250.65 31.4575 250.483 31.3623C251.459 30.243 252.233 29.0285 252.805 27.7188C253.4 26.409 253.841 25.0636 254.126 23.6824C254.412 22.2774 254.591 20.8843 254.662 19.5031C254.757 18.1219 254.805 16.8003 254.805 15.5382V2.53599ZM278.488 2.53599H280.845V29.3619C280.845 30.1716 280.726 30.7907 280.488 31.2194C280.25 31.648 279.845 31.9695 279.273 32.1838C278.702 32.3743 277.88 32.4934 276.809 32.541C275.737 32.5887 274.356 32.6006 272.665 32.5767C272.618 32.2672 272.498 31.8862 272.308 31.4337C272.141 30.9812 271.975 30.5883 271.808 30.2549C272.689 30.2787 273.522 30.2906 274.308 30.2906C275.094 30.2906 275.773 30.2906 276.344 30.2906C276.916 30.2906 277.321 30.2906 277.559 30.2906C277.892 30.2668 278.13 30.1835 278.273 30.0406C278.416 29.9215 278.488 29.6953 278.488 29.3619V2.53599ZM266.093 3.39327H268.486V32.4339H266.093V3.39327ZM33.8969 55.3875C33.1587 56.5305 32.2656 57.7331 31.2179 58.9952C30.1701 60.2574 28.9794 61.5076 27.6458 62.7459C26.3361 63.9842 24.9549 65.1749 23.5023 66.3179C22.0496 67.4371 20.5613 68.4611 19.0372 69.3898C18.9182 69.1993 18.7753 68.9969 18.6086 68.7826C18.4419 68.5445 18.2633 68.3182 18.0728 68.1039C17.8823 67.8658 17.6918 67.6634 17.5013 67.4967C19.5969 66.306 21.6091 64.901 23.538 63.2817C25.4907 61.6624 27.241 59.9597 28.7889 58.1737C30.3606 56.3638 31.6108 54.6255 32.5395 52.9585H34.9685C35.8972 54.3635 36.9688 55.7566 38.1833 57.1378C39.4216 58.4952 40.7314 59.793 42.1125 61.0313C43.4937 62.2696 44.9106 63.4007 46.3633 64.4247C47.8397 65.4487 49.2923 66.3298 50.7211 67.068C50.4354 67.3538 50.1377 67.6872 49.8281 68.0682C49.5424 68.4492 49.2923 68.8064 49.078 69.1398C47.673 68.3301 46.2442 67.3895 44.7916 66.3179C43.3627 65.2463 41.9697 64.1032 40.6123 62.8888C39.2549 61.6505 37.9928 60.4002 36.8259 59.1381C35.6829 57.8522 34.7065 56.602 33.8969 55.3875ZM34.1469 71.1044H45.9703V73.3191H34.1469V71.1044ZM18.8586 82.5706H49.328V84.7496H18.8586V82.5706ZM33.0039 62.6387H35.5043V83.678H33.0039V62.6387ZM23.538 69.1398H25.8598V83.6065H23.538V69.1398ZM54.3612 75.1408H85.5451V77.1769H54.3612V75.1408ZM54.5041 59.531H85.4022V61.5671H54.5041V59.531ZM55.9329 65.6035H84.1162V67.6038H55.9329V65.6035ZM57.7547 70.39H82.3659V72.2832H57.7547V70.39ZM68.6494 66.4965H71.0426V85.8212H68.6494V66.4965ZM65.3274 53.03H67.6135V60.4955H65.3274V53.03ZM72.1499 53.03H74.436V60.3883H72.1499V53.03ZM67.7921 75.9267L69.721 76.8554C68.6255 78.0699 67.2563 79.2248 65.6131 80.3203C63.9938 81.3919 62.2673 82.3325 60.4337 83.1422C58.6001 83.9756 56.7902 84.6543 55.0042 85.1782C54.909 84.9639 54.7661 84.7258 54.5756 84.4638C54.3851 84.2257 54.1946 83.9875 54.004 83.7494C53.8135 83.5113 53.623 83.3088 53.4325 83.1422C55.1947 82.7135 56.9807 82.142 58.7906 81.4276C60.6242 80.6894 62.3269 79.8559 63.8986 78.9272C65.4703 77.9746 66.7681 76.9745 67.7921 75.9267ZM71.8642 75.8552C72.65 76.6649 73.5788 77.4507 74.6504 78.2128C75.7458 78.9748 76.9484 79.6773 78.2581 80.3203C79.5679 80.9394 80.9133 81.499 82.2945 81.9991C83.6995 82.4754 85.0688 82.8683 86.4023 83.1779C86.2356 83.3446 86.0451 83.547 85.8308 83.7851C85.6403 84.0471 85.4498 84.309 85.2593 84.571C85.0688 84.8329 84.914 85.071 84.7949 85.2854C83.4376 84.9044 82.0683 84.4162 80.6871 83.8208C79.3059 83.2493 77.9604 82.5944 76.6507 81.8562C75.341 81.118 74.1146 80.3083 72.9715 79.4272C71.8285 78.5461 70.8402 77.6293 70.0067 76.6768L71.8642 75.8552ZM80.4371 53.4943L82.866 54.2087C82.3659 55.1613 81.8182 56.1376 81.2229 57.1378C80.6276 58.138 80.0679 58.9952 79.544 59.7096L77.5794 59.031C77.9366 58.5309 78.2938 57.9594 78.651 57.3164C79.0082 56.6496 79.3416 55.9828 79.6512 55.3161C79.9608 54.6493 80.2227 54.042 80.4371 53.4943ZM75.6505 61.0313L78.0795 61.6743C77.6509 62.4601 77.2103 63.246 76.7579 64.0318C76.3054 64.7938 75.8768 65.4725 75.4719 66.0679L73.5073 65.4606C73.8645 64.8176 74.2455 64.0794 74.6504 63.246C75.079 62.4125 75.4124 61.6743 75.6505 61.0313ZM57.4332 54.173L59.4692 53.4586C60.1122 54.2444 60.7314 55.1494 61.3267 56.1733C61.922 57.1735 62.3507 58.0427 62.6126 58.7809L60.4694 59.6025C60.2075 58.8643 59.7907 57.9832 59.2192 56.9592C58.6477 55.9352 58.0523 55.0065 57.4332 54.173ZM62.1125 61.8886L64.3986 61.4242C64.8035 62.0196 65.1964 62.6863 65.5774 63.4246C65.9822 64.1628 66.2561 64.8057 66.399 65.3535L64.0772 65.8893C63.9105 65.3415 63.6485 64.6867 63.2913 63.9246C62.9341 63.1626 62.5412 62.4839 62.1125 61.8886ZM107.867 58.638C107.629 60.4955 107.319 62.4363 106.938 64.4604C106.581 66.4846 106.128 68.4254 105.581 70.2829C104.866 72.7356 104.069 74.7836 103.188 76.4267C102.33 78.0461 101.413 79.2605 100.437 80.0702C99.4845 80.8799 98.4724 81.2847 97.4008 81.2847C96.4007 81.2847 95.4243 80.9156 94.4718 80.1774C93.5192 79.4392 92.7334 78.3675 92.1142 76.9625C91.4951 75.5575 91.1855 73.8668 91.1855 71.8903C91.1855 69.9852 91.5784 68.1754 92.3643 66.4608C93.1739 64.7224 94.2813 63.1864 95.6863 61.8529C97.0913 60.4955 98.7344 59.4358 100.616 58.6738C102.497 57.9117 104.509 57.5307 106.652 57.5307C108.748 57.5307 110.617 57.876 112.26 58.5666C113.927 59.2334 115.344 60.1621 116.511 61.3528C117.702 62.5435 118.619 63.9246 119.262 65.4963C119.905 67.068 120.226 68.735 120.226 70.4972C120.226 72.9976 119.69 75.2003 118.619 77.1054C117.547 78.9867 116.011 80.5227 114.011 81.7133C112.034 82.8802 109.641 83.6422 106.831 83.9994L105.366 81.6419C105.914 81.5943 106.45 81.5347 106.974 81.4633C107.498 81.368 107.974 81.2847 108.403 81.2133C109.546 80.9513 110.665 80.5465 111.76 79.9988C112.856 79.4272 113.844 78.7009 114.725 77.8198C115.606 76.9387 116.309 75.879 116.833 74.6407C117.38 73.4024 117.654 71.9855 117.654 70.39C117.654 68.9612 117.404 67.6157 116.904 66.3536C116.404 65.0677 115.678 63.9365 114.725 62.9602C113.796 61.9838 112.653 61.2218 111.296 60.6741C109.939 60.1026 108.379 59.8168 106.617 59.8168C104.664 59.8168 102.89 60.1859 101.294 60.9241C99.6988 61.6385 98.3296 62.5792 97.1865 63.746C96.0435 64.9129 95.1624 66.1988 94.5432 67.6038C93.9479 68.985 93.6502 70.3543 93.6502 71.7117C93.6502 73.2357 93.8526 74.4978 94.2575 75.498C94.6861 76.4982 95.1862 77.2364 95.7577 77.7127C96.353 78.1651 96.9365 78.3914 97.508 78.3914C98.0795 78.3914 98.6749 78.1056 99.294 77.5341C99.9132 76.9625 100.544 76.0457 101.187 74.7836C101.83 73.4977 102.461 71.8069 103.08 69.7113C103.604 67.9968 104.045 66.175 104.402 64.2461C104.783 62.3172 105.057 60.436 105.224 58.6023L107.867 58.638ZM126.117 60.7098H157.193V63.1031H126.117V60.7098ZM133.189 76.5696H149.871V78.9986H133.189V76.5696ZM140.333 53.1014H142.834V85.7855H140.333V53.1014ZM139.583 61.4599L141.726 62.1743C140.655 64.6986 139.333 67.1037 137.761 69.3898C136.19 71.6759 134.451 73.7358 132.546 75.5695C130.665 77.4031 128.7 78.9153 126.652 80.1059C126.533 79.8916 126.367 79.6654 126.152 79.4272C125.938 79.1891 125.724 78.951 125.509 78.7128C125.319 78.4747 125.128 78.2842 124.938 78.1413C126.438 77.3555 127.903 76.3791 129.331 75.2123C130.76 74.0216 132.118 72.6999 133.404 71.2473C134.689 69.7709 135.856 68.2111 136.904 66.5679C137.952 64.901 138.845 63.1983 139.583 61.4599ZM143.655 61.5671C144.608 63.8532 145.834 66.056 147.334 68.1754C148.859 70.2948 150.561 72.2117 152.442 73.9263C154.348 75.6171 156.336 76.9506 158.408 77.927C158.217 78.0937 158.003 78.2961 157.765 78.5342C157.55 78.7724 157.336 79.0224 157.122 79.2844C156.907 79.5463 156.729 79.7964 156.586 80.0345C154.49 78.8914 152.49 77.415 150.585 75.6052C148.68 73.7715 146.953 71.7236 145.406 69.4613C143.881 67.1752 142.596 64.7938 141.548 62.3172L143.655 61.5671ZM179.336 56.9235H189.517V59.031H179.336V56.9235ZM176.157 72.7476H191.124V85.714H188.802V74.8193H178.408V85.8212H176.157V72.7476ZM177.122 82.0705H190.017V84.178H177.122V82.0705ZM180.48 52.9942L182.801 53.6372C182.158 55.2089 181.396 56.733 180.515 58.2094C179.658 59.662 178.717 61.0194 177.693 62.2815C176.669 63.5436 175.61 64.651 174.514 65.6035C174.395 65.4606 174.217 65.2939 173.978 65.1034C173.74 64.8891 173.502 64.6867 173.264 64.4962C173.026 64.2818 172.812 64.1152 172.621 63.9961C174.264 62.6863 175.776 61.067 177.158 59.1381C178.539 57.2092 179.646 55.1613 180.48 52.9942ZM188.874 56.9235H189.302L189.731 56.8163L191.231 57.5307C190.469 59.7216 189.445 61.7219 188.159 63.5317C186.897 65.3415 185.457 66.9609 183.837 68.3897C182.242 69.8185 180.527 71.0568 178.694 72.1046C176.884 73.1286 175.05 73.9859 173.193 74.6764C173.05 74.3669 172.835 74.0216 172.55 73.6406C172.288 73.2595 172.038 72.95 171.799 72.7118C173.586 72.1641 175.348 71.414 177.086 70.4615C178.824 69.4851 180.456 68.342 181.98 67.0323C183.528 65.7226 184.897 64.258 186.088 62.6387C187.278 60.9956 188.207 59.2215 188.874 57.3164V56.9235ZM179.051 58.6738C179.789 60.3645 180.861 62.0791 182.266 63.8175C183.671 65.5321 185.397 67.1037 187.445 68.5326C189.493 69.9614 191.827 71.0806 194.446 71.8903C194.303 72.0331 194.137 72.2237 193.946 72.4618C193.756 72.6999 193.577 72.95 193.41 73.2119C193.244 73.4501 193.101 73.6644 192.982 73.8549C190.315 72.9262 187.945 71.6998 185.873 70.1757C183.825 68.6516 182.087 66.9847 180.658 65.1749C179.229 63.365 178.122 61.5909 177.336 59.8525L179.051 58.6738ZM161.512 60.7813H174.014V63.0316H161.512V60.7813ZM167.013 53.03H169.263V85.7497H167.013V53.03ZM166.906 62.1386L168.442 62.6744C168.156 64.1032 167.775 65.5916 167.299 67.1395C166.846 68.6635 166.334 70.1638 165.763 71.6402C165.191 73.1167 164.584 74.4859 163.941 75.7481C163.298 77.0102 162.643 78.0818 161.976 78.9629C161.834 78.6533 161.631 78.2961 161.369 77.8913C161.107 77.4864 160.869 77.1531 160.655 76.8911C161.298 76.0814 161.929 75.1051 162.548 73.962C163.167 72.819 163.751 71.5926 164.298 70.2829C164.87 68.9493 165.37 67.5919 165.798 66.2107C166.251 64.8057 166.62 63.4484 166.906 62.1386ZM169.085 64.6033C169.299 64.8176 169.632 65.1868 170.085 65.7107C170.537 66.2346 171.014 66.818 171.514 67.4609C172.038 68.0801 172.514 68.6635 172.943 69.2112C173.371 69.7351 173.681 70.1162 173.871 70.3543L172.371 72.2117C172.157 71.8307 171.847 71.3426 171.442 70.7472C171.061 70.1281 170.633 69.497 170.156 68.854C169.704 68.1873 169.275 67.5681 168.87 66.9966C168.466 66.4251 168.132 65.9845 167.87 65.6749L169.085 64.6033ZM208.731 53.03L211.303 53.8158C210.517 54.9827 209.648 56.2091 208.695 57.495C207.743 58.7571 206.862 59.8406 206.052 60.7455L204.123 59.9954C204.647 59.3763 205.195 58.6619 205.766 57.8522C206.361 57.0187 206.921 56.1852 207.445 55.3518C207.969 54.4945 208.398 53.7205 208.731 53.03ZM217.268 55.7447L219.09 54.6016C220.185 55.2684 221.316 56.0305 222.483 56.8877C223.674 57.745 224.781 58.6142 225.805 59.4953C226.829 60.3526 227.663 61.1504 228.306 61.8886L226.305 63.246C225.71 62.5077 224.912 61.6981 223.912 60.817C222.912 59.9121 221.828 59.0191 220.661 58.138C219.495 57.2569 218.363 56.4591 217.268 55.7447ZM198.801 59.3524C200.372 59.3048 202.158 59.2691 204.159 59.2453C206.159 59.2215 208.278 59.1858 210.517 59.1381C212.779 59.0667 215.113 59.0071 217.518 58.9595C219.923 58.8881 222.305 58.8166 224.662 58.7452L224.555 60.7455C221.507 60.8646 218.435 60.9837 215.339 61.1027C212.243 61.198 209.302 61.2813 206.516 61.3528C203.73 61.4242 201.253 61.4838 199.086 61.5314L198.801 59.3524ZM197.408 64.639H229.342V66.7465H197.408V64.639ZM214.446 68.5683L216.375 69.497C215.494 70.1876 214.458 70.8425 213.267 71.4616C212.101 72.057 210.874 72.6047 209.588 73.1048C208.302 73.6048 207.052 74.0216 205.838 74.355C205.671 74.1168 205.457 73.8549 205.195 73.5691C204.933 73.2834 204.671 73.0452 204.409 72.8547C205.552 72.5451 206.754 72.176 208.016 71.7474C209.279 71.2949 210.469 70.7948 211.589 70.2471C212.732 69.6994 213.684 69.1398 214.446 68.5683ZM218.268 72.7476L220.197 73.712C219.03 74.6407 217.649 75.5099 216.054 76.3196C214.458 77.1054 212.755 77.8079 210.946 78.4271C209.16 79.0224 207.385 79.5225 205.623 79.9273C205.457 79.6892 205.242 79.4034 204.98 79.07C204.742 78.7128 204.504 78.4152 204.266 78.177C205.957 77.8436 207.683 77.415 209.445 76.8911C211.208 76.3434 212.851 75.7242 214.375 75.0336C215.923 74.3192 217.22 73.5572 218.268 72.7476ZM222.983 76.8554L225.055 77.8556C223.626 79.3558 221.793 80.6417 219.554 81.7133C217.339 82.7611 214.851 83.6303 212.089 84.3209C209.35 85.0353 206.469 85.5949 203.444 85.9998C203.301 85.6902 203.123 85.3449 202.908 84.9639C202.718 84.6067 202.516 84.2971 202.301 84.0352C205.207 83.7018 207.981 83.2255 210.624 82.6063C213.291 81.9872 215.684 81.2014 217.804 80.2488C219.947 79.2963 221.674 78.1651 222.983 76.8554ZM210.267 60.3883L212.624 60.9956C211.172 64.4724 209.171 67.4371 206.623 69.8899C204.075 72.3427 201.182 74.3312 197.943 75.8552C197.848 75.6885 197.693 75.498 197.479 75.2837C197.265 75.0456 197.038 74.8074 196.8 74.5693C196.586 74.3312 196.384 74.1406 196.193 73.9978C199.432 72.6642 202.266 70.8544 204.695 68.5683C207.147 66.2822 209.005 63.5555 210.267 60.3883ZM218.875 65.1034C219.661 66.3179 220.661 67.4967 221.876 68.6397C223.09 69.759 224.412 70.771 225.841 71.6759C227.27 72.557 228.699 73.2714 230.127 73.8192C229.937 73.962 229.734 74.1525 229.52 74.3907C229.33 74.605 229.139 74.8312 228.949 75.0694C228.782 75.3075 228.639 75.5218 228.52 75.7123C227.067 75.0456 225.603 74.2121 224.126 73.2119C222.674 72.2117 221.316 71.0806 220.054 69.8185C218.792 68.5564 217.732 67.2466 216.875 65.8893L218.875 65.1034ZM239.447 55.2446H249.592V57.6736H239.447V55.2446ZM248.341 55.2446H250.77C250.77 56.2924 250.818 57.5307 250.913 58.9595C251.008 60.3645 251.211 61.8886 251.52 63.5317C251.83 65.1749 252.306 66.8775 252.949 68.6397C253.592 70.4019 254.461 72.176 255.557 73.962C256.676 75.7242 258.069 77.4388 259.736 79.1058C261.403 80.7489 263.427 82.273 265.809 83.678C265.642 83.8208 265.428 84.0113 265.166 84.2495C264.904 84.4876 264.654 84.7377 264.415 84.9996C264.201 85.2616 264.023 85.4878 263.88 85.6783C261.475 84.2257 259.415 82.6302 257.7 80.8918C256.009 79.1296 254.592 77.2959 253.449 75.3909C252.306 73.4858 251.389 71.5807 250.699 69.6756C250.032 67.7705 249.52 65.925 249.163 64.139C248.83 62.3529 248.603 60.6979 248.484 59.1738C248.389 57.6498 248.341 56.34 248.341 55.2446ZM247.413 62.1029L250.127 62.603C249.27 66.2465 248.151 69.5208 246.77 72.4261C245.412 75.3313 243.745 77.8913 241.769 80.1059C239.816 82.2968 237.518 84.1661 234.875 85.714C234.732 85.5473 234.53 85.3449 234.268 85.1068C234.006 84.8686 233.732 84.6305 233.446 84.3924C233.16 84.1542 232.91 83.9637 232.696 83.8208C236.697 81.7014 239.876 78.8319 242.233 75.2123C244.591 71.5926 246.317 67.2228 247.413 62.1029Z" fill="black"/>
</svg>
