<svg width="99" height="102" viewBox="0 0 99 102" fill="none" xmlns="http://www.w3.org/2000/svg">
<g clip-path="url(#clip0_59_2848)">
<path d="M63.3032 29.9438C60.6787 29.4806 58.1572 31.2817 57.7455 33.9062C57.5911 34.7296 57.694 35.5529 57.9513 36.3248L46.9903 45.4848C46.5271 45.176 45.9611 45.0216 45.395 44.9187C44.4687 44.7643 43.6453 44.8673 42.822 45.176L38.0876 39.8242C38.3449 39.361 38.4993 38.8979 38.6022 38.3318C38.6022 38.0745 38.6022 37.8172 38.6022 37.5599C38.6022 35.2442 36.9555 33.1858 34.5883 32.8255C31.9638 32.3624 29.4423 34.1635 29.0306 36.788C28.8762 37.7657 28.9791 38.7435 29.3908 39.6183L20.3853 48.5724C20.025 48.3666 19.5619 48.2636 19.1502 48.2122C17.8637 48.0063 16.5772 48.2636 15.548 49.0356C14.5188 49.8075 13.7983 50.8881 13.5925 52.1746C13.1808 54.7991 14.9305 57.3207 17.555 57.7838C17.8123 57.8353 18.0696 57.8353 18.3783 57.8353C20.694 57.8353 22.7524 56.1885 23.1641 53.8214C23.3185 52.8436 23.2156 51.8659 22.8039 50.991L31.758 41.934C32.1182 42.1399 32.5299 42.2428 32.9931 42.2942C33.3018 42.3457 33.5591 42.3457 33.8164 42.3457C34.4339 42.3457 35 42.2428 35.5661 41.9855L40.3004 47.3374C40.0431 47.8005 39.8887 48.2636 39.7858 48.8297C39.58 50.1162 39.8373 51.4027 40.6092 52.4319C41.3811 53.4611 42.4618 54.1816 43.7483 54.3874C44.057 54.4389 44.3143 54.4389 44.5716 54.4389C45.5494 54.4389 46.5271 54.1301 47.3505 53.5641C48.3797 52.7922 49.1001 51.7115 49.306 50.425C49.3574 50.1162 49.3574 49.8589 49.3574 49.6016C49.3574 49.0356 49.2545 48.521 49.0487 48.0063L60.0097 38.8464C60.4729 39.1552 61.0389 39.3096 61.605 39.4125C61.9138 39.4639 62.1711 39.4639 62.4284 39.4639C63.4061 39.4639 64.3839 39.1552 65.2072 38.5376C66.2364 37.7657 66.9569 36.6851 67.1627 35.3986C67.2142 35.1413 67.2142 34.8325 67.2142 34.5752C67.2656 32.4139 65.6189 30.3554 63.3032 29.9438ZM19.8192 53.2038C19.6648 54.0272 18.8929 54.5418 18.121 54.4389C17.2977 54.2845 16.7316 53.5126 16.886 52.6892C16.9374 52.2776 17.1947 51.9173 17.5035 51.7115C17.7608 51.5571 18.0696 51.4542 18.3783 51.4542C18.4812 51.4542 18.5327 51.4542 18.6356 51.4542C18.9958 51.5056 19.3561 51.7629 19.5619 52.0717C19.8192 52.3805 19.8707 52.7922 19.8192 53.2038ZM33.5591 39.0522C33.1989 39.0008 32.8387 38.7435 32.5814 38.4347C32.3755 38.126 32.2726 37.7143 32.3241 37.3026C32.4784 36.5822 33.096 36.0675 33.8164 36.0675C33.9193 36.0675 33.9708 36.0675 34.0737 36.0675C34.8971 36.2219 35.4117 36.9938 35.3088 37.8172C35.2573 38.2289 35 38.5376 34.6912 38.7949C34.331 39.0008 33.9193 39.1037 33.5591 39.0522ZM44.7775 48.2122C45.6008 48.3666 46.1154 49.1385 46.0125 49.9618C45.9611 50.3735 45.7038 50.7337 45.395 50.9396C45.0862 51.1969 44.6746 51.2483 44.3143 51.1969C43.9541 51.1454 43.5939 50.8881 43.3366 50.5794C43.1307 50.2706 43.0278 49.8589 43.0793 49.4472C43.2337 48.7268 43.8512 48.2122 44.5716 48.2122C44.6231 48.1607 44.726 48.2122 44.7775 48.2122ZM60.9875 34.4723C61.0904 33.7518 61.7594 33.2372 62.4798 33.2372C62.5827 33.2372 62.6342 33.2372 62.7371 33.2372C63.5605 33.3916 64.0751 34.1635 63.9722 34.9869C63.9207 35.3471 63.6634 35.7073 63.3547 35.9646C63.0459 36.2219 62.6342 36.2734 62.274 36.2219C61.8623 36.1705 61.5535 35.9646 61.2962 35.6044C60.9875 35.2442 60.936 34.884 60.9875 34.4723Z" fill="#2A4551"/>
<path d="M63.4576 19.0343C50.1293 5.70603 28.4645 5.70603 15.1878 19.0343C1.85953 32.3625 1.85953 54.0273 15.1878 67.3041C21.6203 73.7366 30.2142 77.2874 39.3227 77.2874C48.4311 77.2874 57.025 73.7366 63.4576 67.3041C69.8901 60.8715 73.4409 52.2776 73.4409 43.1692C73.4409 34.0092 69.8901 25.4668 63.4576 19.0343ZM61.0904 64.9369C55.2754 70.7519 47.5563 73.9424 39.3227 73.9424C31.089 73.9424 23.3699 70.7519 17.5549 64.9369C5.56467 52.9466 5.56467 33.3917 17.5549 21.35C29.5452 9.35971 49.1001 9.35971 61.1418 21.35C66.9569 27.165 70.1474 34.884 70.1474 43.1177C70.0959 51.4028 66.9054 59.1219 61.0904 64.9369Z" fill="#2A4551"/>
<path d="M97.6272 89.5346L81.3143 73.2732C80.0278 72.0381 77.8664 72.0381 76.5799 73.2732L74.573 75.2801L68.6036 69.3107C82.3435 53.8726 81.8804 30.1494 67.1112 15.3803C51.7761 0.0451107 26.8178 0.0451107 11.4826 15.3803C4.07232 22.7906 0.00695801 32.671 0.00695801 43.1689C0.00695801 53.6668 4.07232 63.5472 11.5341 70.9575C19.2017 78.625 29.2879 82.4331 39.3227 82.4331C49.0487 82.4331 58.7747 78.8309 66.3393 71.6779L72.2573 77.5958L70.2503 79.6028C69.6328 80.2203 69.2726 81.0951 69.2726 81.97C69.2726 82.8448 69.6328 83.7196 70.2503 84.3372L86.5118 100.599C87.1293 101.216 88.0041 101.576 88.879 101.576C89.7538 101.576 90.6286 101.216 91.2461 100.599L97.6787 94.1661C98.9652 92.931 98.9652 90.8212 97.6272 89.5346ZM13.9012 68.5903C7.10848 61.7975 3.35188 52.792 3.35188 43.1689C3.35188 33.5458 7.10848 24.4888 13.9012 17.696C20.8999 10.6974 30.1113 7.1981 39.3227 7.1981C48.5341 7.1981 57.7455 10.6974 64.7441 17.696C78.7927 31.7447 78.7927 54.5416 64.7441 68.5903C50.7468 82.639 27.8985 82.639 13.9012 68.5903ZM88.879 98.2829L72.566 82.0214L78.9986 75.5889L95.3115 91.9018L88.879 98.2829Z" fill="#2A4551"/>
</g>
<defs>
<clipPath id="clip0_59_2848">
<rect width="99" height="101.3" fill="white"/>
</clipPath>
</defs>
</svg>
