<svg width="40" height="41" viewBox="0 0 40 41" fill="none" xmlns="http://www.w3.org/2000/svg">
<rect y="0.591309" width="40" height="40" rx="4" fill="#FFFFFF"/>
<path d="M30.5418 14.9963C30.2883 14.0492 29.544 13.3048 28.5968 13.0513C26.88 12.5913 20 12.5913 20 12.5913C20 12.5913 13.12 12.5913 11.405 13.0513C10.4579 13.3048 9.71353 14.0492 9.45999 14.9963C9 16.7113 9 20.2917 9 20.2917C9 20.2917 9 23.872 9.45999 25.587C9.71353 26.5342 10.4579 27.2785 11.405 27.532C13.12 27.992 20 27.992 20 27.992C20 27.992 26.88 27.992 28.595 27.532C29.5421 27.2785 30.2865 26.5342 30.54 25.587C31 23.872 31 20.2917 31 20.2917C31 20.2917 31 16.7113 30.54 14.9963H30.5418Z" fill="#FF0000"/>
<path d="M17.7998 23.589L23.5171 20.2894L17.7998 16.9897V23.589Z" fill="white"/>
</svg>
